M48
; DRILL file {KiCad 8.0.5} date 2026-05-17T23:13:57+0200
; FORMAT={-:-/ absolute / inch / decimal}
; #@! TF.CreationDate,2026-05-17T23:13:57+02:00
; #@! TF.GenerationSoftware,Kicad,Pcbnew,8.0.5
; #@! TF.FileFunction,Plated,1,2,PTH
FMAT,2
INCH
; #@! TA.AperFunction,Plated,PTH,ComponentDrill
T1C0.0315
; #@! TA.AperFunction,Plated,PTH,ComponentDrill
T2C0.0354
; #@! TA.AperFunction,Plated,PTH,ComponentDrill
T3C0.0394
; #@! TA.AperFunction,Plated,PTH,ComponentDrill
T4C0.0433
; #@! TA.AperFunction,Plated,PTH,ComponentDrill
T5C0.0472
; #@! TA.AperFunction,Plated,PTH,ComponentDrill
T6C0.0551
; #@! TA.AperFunction,Plated,PTH,ComponentDrill
T7C0.0630
; #@! TA.AperFunction,Plated,PTH,ComponentDrill
T8C0.0709
; #@! TA.AperFunction,Plated,PTH,ComponentDrill
T9C0.0827
; #@! TA.AperFunction,Plated,PTH,ComponentDrill
T10C0.0984
%
G90
G05
T1
X3.7846Y-4.37
X4.0846Y-4.37
X4.2126Y-4.3701
X4.4213Y-3.563
X4.4213Y-3.6614
X4.5126Y-4.3701
X5.3937Y-3.4744
X5.3937Y-3.5728
X6.0373Y-3.8189
X6.1122Y-3.5827
X6.1751Y-3.8189
X6.18Y-3.17
X6.18Y-3.47
X6.2106Y-3.5827
T2
X6.18Y-2.9813
X6.18Y-3.0813
T3
X5.14Y-2.44
X5.34Y-2.44
X5.9646Y-4.0945
X5.9646Y-4.3307
T4
X4.0177Y-3.5591
X4.0846Y-3.7047
X4.1516Y-3.5591
X4.2185Y-3.7047
X4.2854Y-3.5591
T5
X4.8819Y-3.2677
X5.1772Y-3.2677
X5.75Y-3.1147
X5.75Y-3.41
T6
X3.8516Y-3.1185
X4.0516Y-3.1185
X4.2516Y-3.1185
X4.4516Y-3.1185
T7
X3.878Y-3.9567
X4.378Y-3.9567
T8
X5.2165Y-3.7228
X5.2165Y-4.1732
T9
X4.095Y-2.4606
X4.41Y-2.4606
X5.5906Y-2.4606
X5.905Y-2.4606
T10
X3.6978Y-3.5866
X4.6053Y-3.5866
M30
