G04 #@! TF.GenerationSoftware,KiCad,Pcbnew,8.0.5*
G04 #@! TF.CreationDate,2026-05-17T23:14:01+02:00*
G04 #@! TF.ProjectId,c64-wedge-psu-pcb,6336342d-7765-4646-9765-2d7073752d70,rev?*
G04 #@! TF.SameCoordinates,Original*
G04 #@! TF.FileFunction,Soldermask,Bot*
G04 #@! TF.FilePolarity,Negative*
%FSLAX46Y46*%
G04 Gerber Fmt 4.6, Leading zero omitted, Abs format (unit mm)*
G04 Created by KiCad (PCBNEW 8.0.5) date 2026-05-17 23:14:01*
%MOMM*%
%LPD*%
G01*
G04 APERTURE LIST*
G04 APERTURE END LIST*
G36*
X107041199Y-110153662D02*
G01*
X107088954Y-110153662D01*
X107130194Y-110162427D01*
X107165901Y-110165945D01*
X107210759Y-110179552D01*
X107262973Y-110190651D01*
X107296384Y-110205526D01*
X107325435Y-110214339D01*
X107371602Y-110239015D01*
X107425500Y-110263012D01*
X107450554Y-110281215D01*
X107472453Y-110292920D01*
X107517128Y-110329584D01*
X107569430Y-110367584D01*
X107586411Y-110386443D01*
X107601320Y-110398679D01*
X107641387Y-110447501D01*
X107688473Y-110499795D01*
X107698364Y-110516927D01*
X107707079Y-110527546D01*
X107739306Y-110587840D01*
X107777427Y-110653867D01*
X107781813Y-110667368D01*
X107785660Y-110674564D01*
X107806861Y-110744455D01*
X107832404Y-110823067D01*
X107833303Y-110831623D01*
X107834054Y-110834098D01*
X107841371Y-110908389D01*
X107851000Y-111000000D01*
X107841370Y-111091619D01*
X107834054Y-111165901D01*
X107833303Y-111168375D01*
X107832404Y-111176933D01*
X107806856Y-111255558D01*
X107785660Y-111325435D01*
X107781814Y-111332629D01*
X107777427Y-111346133D01*
X107739299Y-111412172D01*
X107707079Y-111472453D01*
X107698366Y-111483069D01*
X107688473Y-111500205D01*
X107641378Y-111552509D01*
X107601320Y-111601320D01*
X107586414Y-111613552D01*
X107569430Y-111632416D01*
X107517118Y-111670423D01*
X107472453Y-111707079D01*
X107450559Y-111718780D01*
X107425500Y-111736988D01*
X107371591Y-111760989D01*
X107325435Y-111785660D01*
X107296391Y-111794470D01*
X107262973Y-111809349D01*
X107210748Y-111820449D01*
X107165901Y-111834054D01*
X107130203Y-111837570D01*
X107088954Y-111846338D01*
X107041188Y-111846338D01*
X107000000Y-111850395D01*
X106958811Y-111846338D01*
X106911046Y-111846338D01*
X106869797Y-111837570D01*
X106834098Y-111834054D01*
X106789248Y-111820448D01*
X106737027Y-111809349D01*
X106703610Y-111794471D01*
X106674564Y-111785660D01*
X106628402Y-111760986D01*
X106574500Y-111736988D01*
X106549443Y-111718783D01*
X106527546Y-111707079D01*
X106482873Y-111670416D01*
X106430570Y-111632416D01*
X106413588Y-111613555D01*
X106398679Y-111601320D01*
X106358610Y-111552496D01*
X106311527Y-111500205D01*
X106301636Y-111483073D01*
X106292920Y-111472453D01*
X106260687Y-111412148D01*
X106222573Y-111346133D01*
X106218186Y-111332634D01*
X106214339Y-111325435D01*
X106193128Y-111255512D01*
X106167596Y-111176933D01*
X106166697Y-111168380D01*
X106165945Y-111165901D01*
X106158613Y-111091467D01*
X106149000Y-111000000D01*
X106158612Y-110908540D01*
X106165945Y-110834098D01*
X106166697Y-110831618D01*
X106167596Y-110823067D01*
X106193123Y-110744502D01*
X106214339Y-110674564D01*
X106218187Y-110667363D01*
X106222573Y-110653867D01*
X106260680Y-110587863D01*
X106292920Y-110527546D01*
X106301638Y-110516923D01*
X106311527Y-110499795D01*
X106358601Y-110447513D01*
X106398679Y-110398679D01*
X106413591Y-110386440D01*
X106430570Y-110367584D01*
X106482862Y-110329591D01*
X106527546Y-110292920D01*
X106549448Y-110281213D01*
X106574500Y-110263012D01*
X106628391Y-110239018D01*
X106674564Y-110214339D01*
X106703617Y-110205525D01*
X106737027Y-110190651D01*
X106789237Y-110179553D01*
X106834098Y-110165945D01*
X106869806Y-110162427D01*
X106911046Y-110153662D01*
X106958801Y-110153662D01*
X107000000Y-110149604D01*
X107041199Y-110153662D01*
G37*
G36*
X114661199Y-110153662D02*
G01*
X114708954Y-110153662D01*
X114750194Y-110162427D01*
X114785901Y-110165945D01*
X114830759Y-110179552D01*
X114882973Y-110190651D01*
X114916384Y-110205526D01*
X114945435Y-110214339D01*
X114991602Y-110239015D01*
X115045500Y-110263012D01*
X115070554Y-110281215D01*
X115092453Y-110292920D01*
X115137128Y-110329584D01*
X115189430Y-110367584D01*
X115206411Y-110386443D01*
X115221320Y-110398679D01*
X115261387Y-110447501D01*
X115308473Y-110499795D01*
X115318364Y-110516927D01*
X115327079Y-110527546D01*
X115359306Y-110587840D01*
X115397427Y-110653867D01*
X115401813Y-110667368D01*
X115405660Y-110674564D01*
X115426861Y-110744455D01*
X115452404Y-110823067D01*
X115453303Y-110831623D01*
X115454054Y-110834098D01*
X115461371Y-110908389D01*
X115471000Y-111000000D01*
X115461370Y-111091619D01*
X115454054Y-111165901D01*
X115453303Y-111168375D01*
X115452404Y-111176933D01*
X115426856Y-111255558D01*
X115405660Y-111325435D01*
X115401814Y-111332629D01*
X115397427Y-111346133D01*
X115359299Y-111412172D01*
X115327079Y-111472453D01*
X115318366Y-111483069D01*
X115308473Y-111500205D01*
X115261378Y-111552509D01*
X115221320Y-111601320D01*
X115206414Y-111613552D01*
X115189430Y-111632416D01*
X115137118Y-111670423D01*
X115092453Y-111707079D01*
X115070559Y-111718780D01*
X115045500Y-111736988D01*
X114991591Y-111760989D01*
X114945435Y-111785660D01*
X114916391Y-111794470D01*
X114882973Y-111809349D01*
X114830748Y-111820449D01*
X114785901Y-111834054D01*
X114750203Y-111837570D01*
X114708954Y-111846338D01*
X114661188Y-111846338D01*
X114620000Y-111850395D01*
X114578811Y-111846338D01*
X114531046Y-111846338D01*
X114489797Y-111837570D01*
X114454098Y-111834054D01*
X114409248Y-111820448D01*
X114357027Y-111809349D01*
X114323610Y-111794471D01*
X114294564Y-111785660D01*
X114248402Y-111760986D01*
X114194500Y-111736988D01*
X114169443Y-111718783D01*
X114147546Y-111707079D01*
X114102873Y-111670416D01*
X114050570Y-111632416D01*
X114033588Y-111613555D01*
X114018679Y-111601320D01*
X113978610Y-111552496D01*
X113931527Y-111500205D01*
X113921636Y-111483073D01*
X113912920Y-111472453D01*
X113880687Y-111412148D01*
X113842573Y-111346133D01*
X113838186Y-111332634D01*
X113834339Y-111325435D01*
X113813128Y-111255512D01*
X113787596Y-111176933D01*
X113786697Y-111168380D01*
X113785945Y-111165901D01*
X113778613Y-111091467D01*
X113769000Y-111000000D01*
X113778612Y-110908540D01*
X113785945Y-110834098D01*
X113786697Y-110831618D01*
X113787596Y-110823067D01*
X113813123Y-110744502D01*
X113834339Y-110674564D01*
X113838187Y-110667363D01*
X113842573Y-110653867D01*
X113880680Y-110587863D01*
X113912920Y-110527546D01*
X113921638Y-110516923D01*
X113931527Y-110499795D01*
X113978601Y-110447513D01*
X114018679Y-110398679D01*
X114033591Y-110386440D01*
X114050570Y-110367584D01*
X114102862Y-110329591D01*
X114147546Y-110292920D01*
X114169448Y-110281213D01*
X114194500Y-110263012D01*
X114248391Y-110239018D01*
X114294564Y-110214339D01*
X114323617Y-110205525D01*
X114357027Y-110190651D01*
X114409237Y-110179553D01*
X114454098Y-110165945D01*
X114489806Y-110162427D01*
X114531046Y-110153662D01*
X114578801Y-110153662D01*
X114620000Y-110149604D01*
X114661199Y-110153662D01*
G37*
G36*
X96171199Y-110151662D02*
G01*
X96218954Y-110151662D01*
X96260194Y-110160427D01*
X96295901Y-110163945D01*
X96340759Y-110177552D01*
X96392973Y-110188651D01*
X96426384Y-110203526D01*
X96455435Y-110212339D01*
X96501602Y-110237015D01*
X96555500Y-110261012D01*
X96580554Y-110279215D01*
X96602453Y-110290920D01*
X96647128Y-110327584D01*
X96699430Y-110365584D01*
X96716411Y-110384443D01*
X96731320Y-110396679D01*
X96771387Y-110445501D01*
X96818473Y-110497795D01*
X96828364Y-110514927D01*
X96837079Y-110525546D01*
X96869306Y-110585840D01*
X96907427Y-110651867D01*
X96911813Y-110665368D01*
X96915660Y-110672564D01*
X96936861Y-110742455D01*
X96962404Y-110821067D01*
X96963303Y-110829623D01*
X96964054Y-110832098D01*
X96971371Y-110906389D01*
X96981000Y-110998000D01*
X96971370Y-111089619D01*
X96964054Y-111163901D01*
X96963303Y-111166375D01*
X96962404Y-111174933D01*
X96936856Y-111253558D01*
X96915660Y-111323435D01*
X96911814Y-111330629D01*
X96907427Y-111344133D01*
X96869299Y-111410172D01*
X96837079Y-111470453D01*
X96828366Y-111481069D01*
X96818473Y-111498205D01*
X96771378Y-111550509D01*
X96731320Y-111599320D01*
X96716414Y-111611552D01*
X96699430Y-111630416D01*
X96647118Y-111668423D01*
X96602453Y-111705079D01*
X96580559Y-111716780D01*
X96555500Y-111734988D01*
X96501591Y-111758989D01*
X96455435Y-111783660D01*
X96426391Y-111792470D01*
X96392973Y-111807349D01*
X96340748Y-111818449D01*
X96295901Y-111832054D01*
X96260203Y-111835570D01*
X96218954Y-111844338D01*
X96171188Y-111844338D01*
X96130000Y-111848395D01*
X96088811Y-111844338D01*
X96041046Y-111844338D01*
X95999797Y-111835570D01*
X95964098Y-111832054D01*
X95919248Y-111818448D01*
X95867027Y-111807349D01*
X95833610Y-111792471D01*
X95804564Y-111783660D01*
X95758402Y-111758986D01*
X95704500Y-111734988D01*
X95679443Y-111716783D01*
X95657546Y-111705079D01*
X95612873Y-111668416D01*
X95560570Y-111630416D01*
X95543588Y-111611555D01*
X95528679Y-111599320D01*
X95488610Y-111550496D01*
X95441527Y-111498205D01*
X95431636Y-111481073D01*
X95422920Y-111470453D01*
X95390687Y-111410148D01*
X95352573Y-111344133D01*
X95348186Y-111330634D01*
X95344339Y-111323435D01*
X95323128Y-111253512D01*
X95297596Y-111174933D01*
X95296697Y-111166380D01*
X95295945Y-111163901D01*
X95288613Y-111089467D01*
X95279000Y-110998000D01*
X95288612Y-110906540D01*
X95295945Y-110832098D01*
X95296697Y-110829618D01*
X95297596Y-110821067D01*
X95323123Y-110742502D01*
X95344339Y-110672564D01*
X95348187Y-110665363D01*
X95352573Y-110651867D01*
X95390680Y-110585863D01*
X95422920Y-110525546D01*
X95431638Y-110514923D01*
X95441527Y-110497795D01*
X95488601Y-110445513D01*
X95528679Y-110396679D01*
X95543591Y-110384440D01*
X95560570Y-110365584D01*
X95612862Y-110327591D01*
X95657546Y-110290920D01*
X95679448Y-110279213D01*
X95704500Y-110261012D01*
X95758391Y-110237018D01*
X95804564Y-110212339D01*
X95833617Y-110203525D01*
X95867027Y-110188651D01*
X95919237Y-110177553D01*
X95964098Y-110163945D01*
X95999806Y-110160427D01*
X96041046Y-110151662D01*
X96088801Y-110151662D01*
X96130000Y-110147604D01*
X96171199Y-110151662D01*
G37*
G36*
X103791199Y-110151662D02*
G01*
X103838954Y-110151662D01*
X103880194Y-110160427D01*
X103915901Y-110163945D01*
X103960759Y-110177552D01*
X104012973Y-110188651D01*
X104046384Y-110203526D01*
X104075435Y-110212339D01*
X104121602Y-110237015D01*
X104175500Y-110261012D01*
X104200554Y-110279215D01*
X104222453Y-110290920D01*
X104267128Y-110327584D01*
X104319430Y-110365584D01*
X104336411Y-110384443D01*
X104351320Y-110396679D01*
X104391387Y-110445501D01*
X104438473Y-110497795D01*
X104448364Y-110514927D01*
X104457079Y-110525546D01*
X104489306Y-110585840D01*
X104527427Y-110651867D01*
X104531813Y-110665368D01*
X104535660Y-110672564D01*
X104556861Y-110742455D01*
X104582404Y-110821067D01*
X104583303Y-110829623D01*
X104584054Y-110832098D01*
X104591371Y-110906389D01*
X104601000Y-110998000D01*
X104591370Y-111089619D01*
X104584054Y-111163901D01*
X104583303Y-111166375D01*
X104582404Y-111174933D01*
X104556856Y-111253558D01*
X104535660Y-111323435D01*
X104531814Y-111330629D01*
X104527427Y-111344133D01*
X104489299Y-111410172D01*
X104457079Y-111470453D01*
X104448366Y-111481069D01*
X104438473Y-111498205D01*
X104391378Y-111550509D01*
X104351320Y-111599320D01*
X104336414Y-111611552D01*
X104319430Y-111630416D01*
X104267118Y-111668423D01*
X104222453Y-111705079D01*
X104200559Y-111716780D01*
X104175500Y-111734988D01*
X104121591Y-111758989D01*
X104075435Y-111783660D01*
X104046391Y-111792470D01*
X104012973Y-111807349D01*
X103960748Y-111818449D01*
X103915901Y-111832054D01*
X103880203Y-111835570D01*
X103838954Y-111844338D01*
X103791188Y-111844338D01*
X103750000Y-111848395D01*
X103708811Y-111844338D01*
X103661046Y-111844338D01*
X103619797Y-111835570D01*
X103584098Y-111832054D01*
X103539248Y-111818448D01*
X103487027Y-111807349D01*
X103453610Y-111792471D01*
X103424564Y-111783660D01*
X103378402Y-111758986D01*
X103324500Y-111734988D01*
X103299443Y-111716783D01*
X103277546Y-111705079D01*
X103232873Y-111668416D01*
X103180570Y-111630416D01*
X103163588Y-111611555D01*
X103148679Y-111599320D01*
X103108610Y-111550496D01*
X103061527Y-111498205D01*
X103051636Y-111481073D01*
X103042920Y-111470453D01*
X103010687Y-111410148D01*
X102972573Y-111344133D01*
X102968186Y-111330634D01*
X102964339Y-111323435D01*
X102943128Y-111253512D01*
X102917596Y-111174933D01*
X102916697Y-111166380D01*
X102915945Y-111163901D01*
X102908613Y-111089467D01*
X102899000Y-110998000D01*
X102908612Y-110906540D01*
X102915945Y-110832098D01*
X102916697Y-110829618D01*
X102917596Y-110821067D01*
X102943123Y-110742502D01*
X102964339Y-110672564D01*
X102968187Y-110665363D01*
X102972573Y-110651867D01*
X103010680Y-110585863D01*
X103042920Y-110525546D01*
X103051638Y-110514923D01*
X103061527Y-110497795D01*
X103108601Y-110445513D01*
X103148679Y-110396679D01*
X103163591Y-110384440D01*
X103180570Y-110365584D01*
X103232862Y-110327591D01*
X103277546Y-110290920D01*
X103299448Y-110279213D01*
X103324500Y-110261012D01*
X103378391Y-110237018D01*
X103424564Y-110212339D01*
X103453617Y-110203525D01*
X103487027Y-110188651D01*
X103539237Y-110177553D01*
X103584098Y-110163945D01*
X103619806Y-110160427D01*
X103661046Y-110151662D01*
X103708801Y-110151662D01*
X103750000Y-110147604D01*
X103791199Y-110151662D01*
G37*
G36*
X151550938Y-108954017D02*
G01*
X151596923Y-108954017D01*
X151648139Y-108963590D01*
X151705040Y-108969195D01*
X151748261Y-108982306D01*
X151787474Y-108989636D01*
X151841785Y-109010676D01*
X151902200Y-109029003D01*
X151936720Y-109047454D01*
X151968232Y-109059662D01*
X152022977Y-109093559D01*
X152083904Y-109126125D01*
X152109506Y-109147136D01*
X152133048Y-109161713D01*
X152185212Y-109209267D01*
X152243169Y-109256831D01*
X152260342Y-109277757D01*
X152276301Y-109292305D01*
X152322629Y-109353653D01*
X152373875Y-109416096D01*
X152383783Y-109434634D01*
X152393122Y-109447000D01*
X152430274Y-109521613D01*
X152470997Y-109597800D01*
X152475340Y-109612117D01*
X152479528Y-109620528D01*
X152504267Y-109707476D01*
X152530805Y-109794960D01*
X152531676Y-109803811D01*
X152532577Y-109806975D01*
X152541938Y-109908002D01*
X152551000Y-110000000D01*
X152541938Y-110092005D01*
X152532577Y-110193024D01*
X152531676Y-110196187D01*
X152530805Y-110205040D01*
X152504262Y-110292538D01*
X152479528Y-110379471D01*
X152475341Y-110387879D01*
X152470997Y-110402200D01*
X152430267Y-110478399D01*
X152393122Y-110552999D01*
X152383785Y-110565362D01*
X152373875Y-110583904D01*
X152322620Y-110646357D01*
X152276301Y-110707694D01*
X152260345Y-110722238D01*
X152243169Y-110743169D01*
X152185201Y-110790741D01*
X152133048Y-110838286D01*
X152109511Y-110852859D01*
X152083904Y-110873875D01*
X152022965Y-110906447D01*
X151968232Y-110940337D01*
X151936726Y-110952542D01*
X151902200Y-110970997D01*
X151841773Y-110989327D01*
X151787474Y-111010363D01*
X151748268Y-111017691D01*
X151705040Y-111030805D01*
X151648136Y-111036409D01*
X151596923Y-111045983D01*
X151550938Y-111045983D01*
X151500000Y-111051000D01*
X151449062Y-111045983D01*
X151403077Y-111045983D01*
X151351863Y-111036409D01*
X151294960Y-111030805D01*
X151251732Y-111017692D01*
X151212525Y-111010363D01*
X151158221Y-110989325D01*
X151097800Y-110970997D01*
X151063275Y-110952543D01*
X151031767Y-110940337D01*
X150977027Y-110906443D01*
X150916096Y-110873875D01*
X150890491Y-110852861D01*
X150866951Y-110838286D01*
X150814788Y-110790733D01*
X150756831Y-110743169D01*
X150739656Y-110722242D01*
X150723698Y-110707694D01*
X150677367Y-110646342D01*
X150626125Y-110583904D01*
X150616216Y-110565366D01*
X150606877Y-110552999D01*
X150569717Y-110478372D01*
X150529003Y-110402200D01*
X150524660Y-110387884D01*
X150520471Y-110379471D01*
X150495721Y-110292485D01*
X150469195Y-110205040D01*
X150468323Y-110196192D01*
X150467422Y-110193024D01*
X150458044Y-110091833D01*
X150449000Y-110000000D01*
X150458044Y-109908173D01*
X150467422Y-109806975D01*
X150468323Y-109803805D01*
X150469195Y-109794960D01*
X150495716Y-109707529D01*
X150520471Y-109620528D01*
X150524661Y-109612112D01*
X150529003Y-109597800D01*
X150569710Y-109521641D01*
X150606877Y-109447000D01*
X150616218Y-109434629D01*
X150626125Y-109416096D01*
X150677357Y-109353668D01*
X150723698Y-109292305D01*
X150739660Y-109277753D01*
X150756831Y-109256831D01*
X150814777Y-109209275D01*
X150866951Y-109161713D01*
X150890496Y-109147134D01*
X150916096Y-109126125D01*
X150977015Y-109093563D01*
X151031767Y-109059662D01*
X151063282Y-109047452D01*
X151097800Y-109029003D01*
X151158209Y-109010677D01*
X151212525Y-108989636D01*
X151251739Y-108982305D01*
X151294960Y-108969195D01*
X151351860Y-108963590D01*
X151403077Y-108954017D01*
X151449062Y-108954017D01*
X151500000Y-108949000D01*
X151550938Y-108954017D01*
G37*
G36*
X132763425Y-104167841D02*
G01*
X133021487Y-104223979D01*
X133268933Y-104316271D01*
X133500726Y-104442840D01*
X133712147Y-104601108D01*
X133898892Y-104787853D01*
X134057160Y-104999274D01*
X134183729Y-105231067D01*
X134276021Y-105478513D01*
X134332159Y-105736575D01*
X134351000Y-106000000D01*
X134332159Y-106263425D01*
X134276021Y-106521487D01*
X134183729Y-106768933D01*
X134057160Y-107000726D01*
X133898892Y-107212147D01*
X133712147Y-107398892D01*
X133500726Y-107557160D01*
X133268933Y-107683729D01*
X133021487Y-107776021D01*
X132763425Y-107832159D01*
X132500000Y-107851000D01*
X132236575Y-107832159D01*
X131978513Y-107776021D01*
X131731067Y-107683729D01*
X131499274Y-107557160D01*
X131287853Y-107398892D01*
X131101108Y-107212147D01*
X130942840Y-107000726D01*
X130816271Y-106768933D01*
X130723979Y-106521487D01*
X130667841Y-106263425D01*
X130649000Y-106000000D01*
X130667841Y-105736575D01*
X130723979Y-105478513D01*
X130816271Y-105231067D01*
X130942840Y-104999274D01*
X131101108Y-104787853D01*
X131287853Y-104601108D01*
X131499274Y-104442840D01*
X131731067Y-104316271D01*
X131978513Y-104223979D01*
X132236575Y-104167841D01*
X132500000Y-104149000D01*
X132763425Y-104167841D01*
G37*
G36*
X151550938Y-102954017D02*
G01*
X151596923Y-102954017D01*
X151648139Y-102963590D01*
X151705040Y-102969195D01*
X151748261Y-102982306D01*
X151787474Y-102989636D01*
X151841785Y-103010676D01*
X151902200Y-103029003D01*
X151936720Y-103047454D01*
X151968232Y-103059662D01*
X152022977Y-103093559D01*
X152083904Y-103126125D01*
X152109506Y-103147136D01*
X152133048Y-103161713D01*
X152185212Y-103209267D01*
X152243169Y-103256831D01*
X152260342Y-103277757D01*
X152276301Y-103292305D01*
X152322629Y-103353653D01*
X152373875Y-103416096D01*
X152383783Y-103434634D01*
X152393122Y-103447000D01*
X152430274Y-103521613D01*
X152470997Y-103597800D01*
X152475340Y-103612117D01*
X152479528Y-103620528D01*
X152504267Y-103707476D01*
X152530805Y-103794960D01*
X152531676Y-103803811D01*
X152532577Y-103806975D01*
X152541938Y-103908002D01*
X152551000Y-104000000D01*
X152541938Y-104092005D01*
X152532577Y-104193024D01*
X152531676Y-104196187D01*
X152530805Y-104205040D01*
X152504262Y-104292538D01*
X152479528Y-104379471D01*
X152475341Y-104387879D01*
X152470997Y-104402200D01*
X152430267Y-104478399D01*
X152393122Y-104552999D01*
X152383785Y-104565362D01*
X152373875Y-104583904D01*
X152322620Y-104646357D01*
X152276301Y-104707694D01*
X152260345Y-104722238D01*
X152243169Y-104743169D01*
X152185201Y-104790741D01*
X152133048Y-104838286D01*
X152109511Y-104852859D01*
X152083904Y-104873875D01*
X152022965Y-104906447D01*
X151968232Y-104940337D01*
X151936726Y-104952542D01*
X151902200Y-104970997D01*
X151841773Y-104989327D01*
X151787474Y-105010363D01*
X151748268Y-105017691D01*
X151705040Y-105030805D01*
X151648136Y-105036409D01*
X151596923Y-105045983D01*
X151550938Y-105045983D01*
X151500000Y-105051000D01*
X151449062Y-105045983D01*
X151403077Y-105045983D01*
X151351863Y-105036409D01*
X151294960Y-105030805D01*
X151251732Y-105017692D01*
X151212525Y-105010363D01*
X151158221Y-104989325D01*
X151097800Y-104970997D01*
X151063275Y-104952543D01*
X151031767Y-104940337D01*
X150977027Y-104906443D01*
X150916096Y-104873875D01*
X150890491Y-104852861D01*
X150866951Y-104838286D01*
X150814788Y-104790733D01*
X150756831Y-104743169D01*
X150739656Y-104722242D01*
X150723698Y-104707694D01*
X150677367Y-104646342D01*
X150626125Y-104583904D01*
X150616216Y-104565366D01*
X150606877Y-104552999D01*
X150569717Y-104478372D01*
X150529003Y-104402200D01*
X150524660Y-104387884D01*
X150520471Y-104379471D01*
X150495721Y-104292485D01*
X150469195Y-104205040D01*
X150468323Y-104196192D01*
X150467422Y-104193024D01*
X150458044Y-104091833D01*
X150449000Y-104000000D01*
X150458044Y-103908173D01*
X150467422Y-103806975D01*
X150468323Y-103803805D01*
X150469195Y-103794960D01*
X150495716Y-103707529D01*
X150520471Y-103620528D01*
X150524661Y-103612112D01*
X150529003Y-103597800D01*
X150569710Y-103521641D01*
X150606877Y-103447000D01*
X150616218Y-103434629D01*
X150626125Y-103416096D01*
X150677357Y-103353668D01*
X150723698Y-103292305D01*
X150739660Y-103277753D01*
X150756831Y-103256831D01*
X150814777Y-103209275D01*
X150866951Y-103161713D01*
X150890496Y-103147134D01*
X150916096Y-103126125D01*
X150977015Y-103093563D01*
X151031767Y-103059662D01*
X151063282Y-103047452D01*
X151097800Y-103029003D01*
X151158209Y-103010677D01*
X151212525Y-102989636D01*
X151251739Y-102982305D01*
X151294960Y-102969195D01*
X151351860Y-102963590D01*
X151403077Y-102954017D01*
X151449062Y-102954017D01*
X151500000Y-102949000D01*
X151550938Y-102954017D01*
G37*
G36*
X98563098Y-98853966D02*
G01*
X98623353Y-98853966D01*
X98689199Y-98863890D01*
X98758273Y-98869327D01*
X98813947Y-98882693D01*
X98867302Y-98890735D01*
X98937021Y-98912240D01*
X99010187Y-98929806D01*
X99057495Y-98949401D01*
X99103052Y-98963454D01*
X99174569Y-98997895D01*
X99249538Y-99028948D01*
X99288022Y-99052531D01*
X99325322Y-99070494D01*
X99396271Y-99118866D01*
X99470433Y-99164313D01*
X99500127Y-99189674D01*
X99529162Y-99209470D01*
X99596956Y-99272374D01*
X99667433Y-99332567D01*
X99688834Y-99357625D01*
X99710011Y-99377274D01*
X99771925Y-99454911D01*
X99835687Y-99529567D01*
X99849709Y-99552449D01*
X99863830Y-99570156D01*
X99917087Y-99662399D01*
X99971052Y-99750462D01*
X99978977Y-99769597D01*
X99987185Y-99783812D01*
X100029038Y-99890454D01*
X100070194Y-99989813D01*
X100073597Y-100003991D01*
X100077314Y-100013460D01*
X100105157Y-100135446D01*
X100130673Y-100241727D01*
X100131334Y-100250133D01*
X100132214Y-100253986D01*
X100143683Y-100407031D01*
X100151000Y-100500000D01*
X100143682Y-100592975D01*
X100132214Y-100746013D01*
X100131334Y-100749865D01*
X100130673Y-100758273D01*
X100105152Y-100864573D01*
X100077314Y-100986539D01*
X100073598Y-100996005D01*
X100070194Y-101010187D01*
X100029031Y-101109563D01*
X99987185Y-101216187D01*
X99978979Y-101230399D01*
X99971052Y-101249538D01*
X99917077Y-101337616D01*
X99863830Y-101429843D01*
X99849712Y-101447546D01*
X99835687Y-101470433D01*
X99771913Y-101545102D01*
X99710011Y-101622725D01*
X99688838Y-101642369D01*
X99667433Y-101667433D01*
X99596942Y-101727637D01*
X99529162Y-101790529D01*
X99500133Y-101810320D01*
X99470433Y-101835687D01*
X99396257Y-101881142D01*
X99325322Y-101929505D01*
X99288030Y-101947463D01*
X99249538Y-101971052D01*
X99174554Y-102002110D01*
X99103052Y-102036545D01*
X99057504Y-102050594D01*
X99010187Y-102070194D01*
X98937007Y-102087762D01*
X98867302Y-102109264D01*
X98813955Y-102117304D01*
X98758273Y-102130673D01*
X98689195Y-102136109D01*
X98623353Y-102146034D01*
X98563098Y-102146034D01*
X98500000Y-102151000D01*
X98436902Y-102146034D01*
X98376647Y-102146034D01*
X98310803Y-102136109D01*
X98241727Y-102130673D01*
X98186045Y-102117305D01*
X98132697Y-102109264D01*
X98062988Y-102087761D01*
X97989813Y-102070194D01*
X97942498Y-102050595D01*
X97896947Y-102036545D01*
X97825438Y-102002107D01*
X97750462Y-101971052D01*
X97711972Y-101947465D01*
X97674675Y-101929504D01*
X97603726Y-101881131D01*
X97529567Y-101835687D01*
X97499873Y-101810326D01*
X97470839Y-101790531D01*
X97403043Y-101727625D01*
X97332567Y-101667433D01*
X97311164Y-101642374D01*
X97289988Y-101622725D01*
X97228071Y-101545084D01*
X97164313Y-101470433D01*
X97150291Y-101447551D01*
X97136169Y-101429843D01*
X97082905Y-101337588D01*
X97028948Y-101249538D01*
X97021023Y-101230405D01*
X97012814Y-101216187D01*
X96970949Y-101109517D01*
X96929806Y-101010187D01*
X96926402Y-100996012D01*
X96922685Y-100986539D01*
X96894827Y-100864488D01*
X96869327Y-100758273D01*
X96868665Y-100749871D01*
X96867785Y-100746013D01*
X96856296Y-100592710D01*
X96849000Y-100500000D01*
X96856296Y-100407297D01*
X96867785Y-100253986D01*
X96868665Y-100250126D01*
X96869327Y-100241727D01*
X96894822Y-100135530D01*
X96922685Y-100013460D01*
X96926403Y-100003984D01*
X96929806Y-99989813D01*
X96970942Y-99890500D01*
X97012814Y-99783812D01*
X97021024Y-99769590D01*
X97028948Y-99750462D01*
X97082895Y-99662427D01*
X97136169Y-99570156D01*
X97150293Y-99552443D01*
X97164313Y-99529567D01*
X97228059Y-99454929D01*
X97289988Y-99377274D01*
X97311169Y-99357620D01*
X97332567Y-99332567D01*
X97403029Y-99272386D01*
X97470839Y-99209468D01*
X97499879Y-99189668D01*
X97529567Y-99164313D01*
X97603711Y-99118876D01*
X97674675Y-99070495D01*
X97711980Y-99052529D01*
X97750462Y-99028948D01*
X97825423Y-98997898D01*
X97896947Y-98963454D01*
X97942507Y-98949400D01*
X97989813Y-98929806D01*
X98062973Y-98912241D01*
X98132697Y-98890735D01*
X98186054Y-98882692D01*
X98241727Y-98869327D01*
X98310799Y-98863890D01*
X98376647Y-98853966D01*
X98436902Y-98853966D01*
X98500000Y-98849000D01*
X98563098Y-98853966D01*
G37*
G36*
X112819517Y-98852882D02*
G01*
X112836062Y-98863938D01*
X112847118Y-98880483D01*
X112851000Y-98900000D01*
X112851000Y-102100000D01*
X112847118Y-102119517D01*
X112836062Y-102136062D01*
X112819517Y-102147118D01*
X112800000Y-102151000D01*
X109600000Y-102151000D01*
X109580483Y-102147118D01*
X109563938Y-102136062D01*
X109552882Y-102119517D01*
X109549000Y-102100000D01*
X109549000Y-98900000D01*
X109552882Y-98880483D01*
X109563938Y-98863938D01*
X109580483Y-98852882D01*
X109600000Y-98849000D01*
X112800000Y-98849000D01*
X112819517Y-98852882D01*
G37*
G36*
X154166866Y-96152882D02*
G01*
X154183411Y-96163938D01*
X154194467Y-96180483D01*
X154198349Y-96200000D01*
X154198349Y-97800000D01*
X154194467Y-97819517D01*
X154183411Y-97836062D01*
X154166866Y-97847118D01*
X154147349Y-97851000D01*
X152547349Y-97851000D01*
X152527832Y-97847118D01*
X152511287Y-97836062D01*
X152500231Y-97819517D01*
X152496349Y-97800000D01*
X152496349Y-96200000D01*
X152500231Y-96180483D01*
X152511287Y-96163938D01*
X152527832Y-96152882D01*
X152547349Y-96149000D01*
X154147349Y-96149000D01*
X154166866Y-96152882D01*
G37*
G36*
X156888548Y-96153662D02*
G01*
X156936303Y-96153662D01*
X156977543Y-96162427D01*
X157013250Y-96165945D01*
X157058108Y-96179552D01*
X157110322Y-96190651D01*
X157143733Y-96205526D01*
X157172784Y-96214339D01*
X157218951Y-96239015D01*
X157272849Y-96263012D01*
X157297903Y-96281215D01*
X157319802Y-96292920D01*
X157364477Y-96329584D01*
X157416779Y-96367584D01*
X157433760Y-96386443D01*
X157448669Y-96398679D01*
X157488736Y-96447501D01*
X157535822Y-96499795D01*
X157545713Y-96516927D01*
X157554428Y-96527546D01*
X157586655Y-96587840D01*
X157624776Y-96653867D01*
X157629162Y-96667368D01*
X157633009Y-96674564D01*
X157654210Y-96744455D01*
X157679753Y-96823067D01*
X157680652Y-96831623D01*
X157681403Y-96834098D01*
X157688720Y-96908389D01*
X157698349Y-97000000D01*
X157688719Y-97091619D01*
X157681403Y-97165901D01*
X157680652Y-97168375D01*
X157679753Y-97176933D01*
X157654205Y-97255558D01*
X157633009Y-97325435D01*
X157629163Y-97332629D01*
X157624776Y-97346133D01*
X157586648Y-97412172D01*
X157554428Y-97472453D01*
X157545715Y-97483069D01*
X157535822Y-97500205D01*
X157488727Y-97552509D01*
X157448669Y-97601320D01*
X157433763Y-97613552D01*
X157416779Y-97632416D01*
X157364467Y-97670423D01*
X157319802Y-97707079D01*
X157297908Y-97718780D01*
X157272849Y-97736988D01*
X157218940Y-97760989D01*
X157172784Y-97785660D01*
X157143740Y-97794470D01*
X157110322Y-97809349D01*
X157058097Y-97820449D01*
X157013250Y-97834054D01*
X156977552Y-97837570D01*
X156936303Y-97846338D01*
X156888537Y-97846338D01*
X156847349Y-97850395D01*
X156806160Y-97846338D01*
X156758395Y-97846338D01*
X156717146Y-97837570D01*
X156681447Y-97834054D01*
X156636597Y-97820448D01*
X156584376Y-97809349D01*
X156550959Y-97794471D01*
X156521913Y-97785660D01*
X156475751Y-97760986D01*
X156421849Y-97736988D01*
X156396792Y-97718783D01*
X156374895Y-97707079D01*
X156330222Y-97670416D01*
X156277919Y-97632416D01*
X156260937Y-97613555D01*
X156246028Y-97601320D01*
X156205959Y-97552496D01*
X156158876Y-97500205D01*
X156148985Y-97483073D01*
X156140269Y-97472453D01*
X156108036Y-97412148D01*
X156069922Y-97346133D01*
X156065535Y-97332634D01*
X156061688Y-97325435D01*
X156040477Y-97255512D01*
X156014945Y-97176933D01*
X156014046Y-97168380D01*
X156013294Y-97165901D01*
X156005962Y-97091467D01*
X155996349Y-97000000D01*
X156005961Y-96908540D01*
X156013294Y-96834098D01*
X156014046Y-96831618D01*
X156014945Y-96823067D01*
X156040472Y-96744502D01*
X156061688Y-96674564D01*
X156065536Y-96667363D01*
X156069922Y-96653867D01*
X156108029Y-96587863D01*
X156140269Y-96527546D01*
X156148987Y-96516923D01*
X156158876Y-96499795D01*
X156205950Y-96447513D01*
X156246028Y-96398679D01*
X156260940Y-96386440D01*
X156277919Y-96367584D01*
X156330211Y-96329591D01*
X156374895Y-96292920D01*
X156396797Y-96281213D01*
X156421849Y-96263012D01*
X156475740Y-96239018D01*
X156521913Y-96214339D01*
X156550966Y-96205525D01*
X156584376Y-96190651D01*
X156636586Y-96179553D01*
X156681447Y-96165945D01*
X156717155Y-96162427D01*
X156758395Y-96153662D01*
X156806150Y-96153662D01*
X156847349Y-96149604D01*
X156888548Y-96153662D01*
G37*
G36*
X132763425Y-92727841D02*
G01*
X133021487Y-92783979D01*
X133268933Y-92876271D01*
X133500726Y-93002840D01*
X133712147Y-93161108D01*
X133898892Y-93347853D01*
X134057160Y-93559274D01*
X134183729Y-93791067D01*
X134276021Y-94038513D01*
X134332159Y-94296575D01*
X134351000Y-94560000D01*
X134332159Y-94823425D01*
X134276021Y-95081487D01*
X134183729Y-95328933D01*
X134057160Y-95560726D01*
X133898892Y-95772147D01*
X133712147Y-95958892D01*
X133500726Y-96117160D01*
X133268933Y-96243729D01*
X133021487Y-96336021D01*
X132763425Y-96392159D01*
X132500000Y-96411000D01*
X132236575Y-96392159D01*
X131978513Y-96336021D01*
X131731067Y-96243729D01*
X131499274Y-96117160D01*
X131287853Y-95958892D01*
X131101108Y-95772147D01*
X130942840Y-95560726D01*
X130816271Y-95328933D01*
X130723979Y-95081487D01*
X130667841Y-94823425D01*
X130649000Y-94560000D01*
X130667841Y-94296575D01*
X130723979Y-94038513D01*
X130816271Y-93791067D01*
X130942840Y-93559274D01*
X131101108Y-93347853D01*
X131287853Y-93161108D01*
X131499274Y-93002840D01*
X131731067Y-92876271D01*
X131978513Y-92783979D01*
X132236575Y-92727841D01*
X132500000Y-92709000D01*
X132763425Y-92727841D01*
G37*
G36*
X103796604Y-93153590D02*
G01*
X103837696Y-93153590D01*
X103883456Y-93162144D01*
X103935531Y-93167273D01*
X103975091Y-93179273D01*
X104010111Y-93185820D01*
X104058617Y-93204611D01*
X104113932Y-93221391D01*
X104145534Y-93238282D01*
X104173656Y-93249177D01*
X104222513Y-93279428D01*
X104278347Y-93309272D01*
X104301809Y-93328526D01*
X104322784Y-93341514D01*
X104369256Y-93383879D01*
X104422459Y-93427541D01*
X104438224Y-93446751D01*
X104452400Y-93459674D01*
X104493557Y-93514174D01*
X104540728Y-93571653D01*
X104549848Y-93588717D01*
X104558099Y-93599642D01*
X104590925Y-93665566D01*
X104628609Y-93736068D01*
X104632628Y-93749316D01*
X104636282Y-93756655D01*
X104657864Y-93832507D01*
X104682727Y-93914469D01*
X104683543Y-93922762D01*
X104684280Y-93925350D01*
X104691937Y-94007982D01*
X104701000Y-94100000D01*
X104691936Y-94192026D01*
X104684280Y-94274649D01*
X104683544Y-94277235D01*
X104682727Y-94285531D01*
X104657859Y-94367507D01*
X104636282Y-94443344D01*
X104632628Y-94450680D01*
X104628609Y-94463932D01*
X104590917Y-94534447D01*
X104558099Y-94600357D01*
X104549850Y-94611279D01*
X104540728Y-94628347D01*
X104493547Y-94685836D01*
X104452400Y-94740325D01*
X104438227Y-94753244D01*
X104422459Y-94772459D01*
X104369245Y-94816129D01*
X104322784Y-94858485D01*
X104301814Y-94871469D01*
X104278347Y-94890728D01*
X104222502Y-94920577D01*
X104173656Y-94950822D01*
X104145541Y-94961713D01*
X104113932Y-94978609D01*
X104058605Y-94995392D01*
X104010111Y-95014179D01*
X103975098Y-95020724D01*
X103935531Y-95032727D01*
X103883453Y-95037856D01*
X103837696Y-95046410D01*
X103796604Y-95046410D01*
X103750000Y-95051000D01*
X103703396Y-95046410D01*
X103662304Y-95046410D01*
X103616545Y-95037856D01*
X103564469Y-95032727D01*
X103524902Y-95020724D01*
X103489888Y-95014179D01*
X103441389Y-94995390D01*
X103386068Y-94978609D01*
X103354461Y-94961714D01*
X103326343Y-94950822D01*
X103277490Y-94920573D01*
X103221653Y-94890728D01*
X103198188Y-94871471D01*
X103177215Y-94858485D01*
X103130744Y-94816121D01*
X103077541Y-94772459D01*
X103061775Y-94753248D01*
X103047599Y-94740325D01*
X103006439Y-94685821D01*
X102959272Y-94628347D01*
X102950151Y-94611284D01*
X102941900Y-94600357D01*
X102909067Y-94534420D01*
X102871391Y-94463932D01*
X102867372Y-94450685D01*
X102863717Y-94443344D01*
X102842124Y-94367454D01*
X102817273Y-94285531D01*
X102816456Y-94277241D01*
X102815719Y-94274649D01*
X102808046Y-94191854D01*
X102799000Y-94100000D01*
X102808045Y-94008153D01*
X102815719Y-93925350D01*
X102816456Y-93922757D01*
X102817273Y-93914469D01*
X102842119Y-93832560D01*
X102863717Y-93756655D01*
X102867373Y-93749311D01*
X102871391Y-93736068D01*
X102909060Y-93665593D01*
X102941900Y-93599642D01*
X102950153Y-93588712D01*
X102959272Y-93571653D01*
X103006430Y-93514190D01*
X103047599Y-93459674D01*
X103061778Y-93446747D01*
X103077541Y-93427541D01*
X103130733Y-93383887D01*
X103177215Y-93341514D01*
X103198193Y-93328524D01*
X103221653Y-93309272D01*
X103277478Y-93279432D01*
X103326343Y-93249177D01*
X103354467Y-93238281D01*
X103386068Y-93221391D01*
X103441377Y-93204612D01*
X103489888Y-93185820D01*
X103524909Y-93179273D01*
X103564469Y-93167273D01*
X103616542Y-93162144D01*
X103662304Y-93153590D01*
X103703396Y-93153590D01*
X103750000Y-93149000D01*
X103796604Y-93153590D01*
G37*
G36*
X107196604Y-93153590D02*
G01*
X107237696Y-93153590D01*
X107283456Y-93162144D01*
X107335531Y-93167273D01*
X107375091Y-93179273D01*
X107410111Y-93185820D01*
X107458617Y-93204611D01*
X107513932Y-93221391D01*
X107545534Y-93238282D01*
X107573656Y-93249177D01*
X107622513Y-93279428D01*
X107678347Y-93309272D01*
X107701809Y-93328526D01*
X107722784Y-93341514D01*
X107769256Y-93383879D01*
X107822459Y-93427541D01*
X107838224Y-93446751D01*
X107852400Y-93459674D01*
X107893557Y-93514174D01*
X107940728Y-93571653D01*
X107949848Y-93588717D01*
X107958099Y-93599642D01*
X107990925Y-93665566D01*
X108028609Y-93736068D01*
X108032628Y-93749316D01*
X108036282Y-93756655D01*
X108057864Y-93832507D01*
X108082727Y-93914469D01*
X108083543Y-93922762D01*
X108084280Y-93925350D01*
X108091937Y-94007982D01*
X108101000Y-94100000D01*
X108091936Y-94192026D01*
X108084280Y-94274649D01*
X108083544Y-94277235D01*
X108082727Y-94285531D01*
X108057859Y-94367507D01*
X108036282Y-94443344D01*
X108032628Y-94450680D01*
X108028609Y-94463932D01*
X107990917Y-94534447D01*
X107958099Y-94600357D01*
X107949850Y-94611279D01*
X107940728Y-94628347D01*
X107893547Y-94685836D01*
X107852400Y-94740325D01*
X107838227Y-94753244D01*
X107822459Y-94772459D01*
X107769245Y-94816129D01*
X107722784Y-94858485D01*
X107701814Y-94871469D01*
X107678347Y-94890728D01*
X107622502Y-94920577D01*
X107573656Y-94950822D01*
X107545541Y-94961713D01*
X107513932Y-94978609D01*
X107458605Y-94995392D01*
X107410111Y-95014179D01*
X107375098Y-95020724D01*
X107335531Y-95032727D01*
X107283453Y-95037856D01*
X107237696Y-95046410D01*
X107196604Y-95046410D01*
X107150000Y-95051000D01*
X107103396Y-95046410D01*
X107062304Y-95046410D01*
X107016545Y-95037856D01*
X106964469Y-95032727D01*
X106924902Y-95020724D01*
X106889888Y-95014179D01*
X106841389Y-94995390D01*
X106786068Y-94978609D01*
X106754461Y-94961714D01*
X106726343Y-94950822D01*
X106677490Y-94920573D01*
X106621653Y-94890728D01*
X106598188Y-94871471D01*
X106577215Y-94858485D01*
X106530744Y-94816121D01*
X106477541Y-94772459D01*
X106461775Y-94753248D01*
X106447599Y-94740325D01*
X106406439Y-94685821D01*
X106359272Y-94628347D01*
X106350151Y-94611284D01*
X106341900Y-94600357D01*
X106309067Y-94534420D01*
X106271391Y-94463932D01*
X106267372Y-94450685D01*
X106263717Y-94443344D01*
X106242124Y-94367454D01*
X106217273Y-94285531D01*
X106216456Y-94277241D01*
X106215719Y-94274649D01*
X106208046Y-94191854D01*
X106199000Y-94100000D01*
X106208045Y-94008153D01*
X106215719Y-93925350D01*
X106216456Y-93922757D01*
X106217273Y-93914469D01*
X106242119Y-93832560D01*
X106263717Y-93756655D01*
X106267373Y-93749311D01*
X106271391Y-93736068D01*
X106309060Y-93665593D01*
X106341900Y-93599642D01*
X106350153Y-93588712D01*
X106359272Y-93571653D01*
X106406430Y-93514190D01*
X106447599Y-93459674D01*
X106461778Y-93446747D01*
X106477541Y-93427541D01*
X106530733Y-93383887D01*
X106577215Y-93341514D01*
X106598193Y-93328524D01*
X106621653Y-93309272D01*
X106677478Y-93279432D01*
X106726343Y-93249177D01*
X106754467Y-93238281D01*
X106786068Y-93221391D01*
X106841377Y-93204612D01*
X106889888Y-93185820D01*
X106924909Y-93179273D01*
X106964469Y-93167273D01*
X107016542Y-93162144D01*
X107062304Y-93153590D01*
X107103396Y-93153590D01*
X107150000Y-93149000D01*
X107196604Y-93153590D01*
G37*
G36*
X112343199Y-92153662D02*
G01*
X112390954Y-92153662D01*
X112432194Y-92162427D01*
X112467901Y-92165945D01*
X112512759Y-92179552D01*
X112564973Y-92190651D01*
X112598384Y-92205526D01*
X112627435Y-92214339D01*
X112673602Y-92239015D01*
X112727500Y-92263012D01*
X112752554Y-92281215D01*
X112774453Y-92292920D01*
X112819128Y-92329584D01*
X112871430Y-92367584D01*
X112888411Y-92386443D01*
X112903320Y-92398679D01*
X112943387Y-92447501D01*
X112990473Y-92499795D01*
X113000364Y-92516927D01*
X113009079Y-92527546D01*
X113041306Y-92587840D01*
X113079427Y-92653867D01*
X113083813Y-92667368D01*
X113087660Y-92674564D01*
X113108861Y-92744455D01*
X113134404Y-92823067D01*
X113135303Y-92831623D01*
X113136054Y-92834098D01*
X113143371Y-92908389D01*
X113153000Y-93000000D01*
X113143370Y-93091619D01*
X113136054Y-93165901D01*
X113135303Y-93168375D01*
X113134404Y-93176933D01*
X113108856Y-93255558D01*
X113087660Y-93325435D01*
X113083814Y-93332629D01*
X113079427Y-93346133D01*
X113041299Y-93412172D01*
X113009079Y-93472453D01*
X113000366Y-93483069D01*
X112990473Y-93500205D01*
X112943378Y-93552509D01*
X112903320Y-93601320D01*
X112888414Y-93613552D01*
X112871430Y-93632416D01*
X112819118Y-93670423D01*
X112774453Y-93707079D01*
X112752559Y-93718780D01*
X112727500Y-93736988D01*
X112673591Y-93760989D01*
X112627435Y-93785660D01*
X112598391Y-93794470D01*
X112564973Y-93809349D01*
X112512748Y-93820449D01*
X112467901Y-93834054D01*
X112432203Y-93837570D01*
X112390954Y-93846338D01*
X112343188Y-93846338D01*
X112302000Y-93850395D01*
X112260811Y-93846338D01*
X112213046Y-93846338D01*
X112171797Y-93837570D01*
X112136098Y-93834054D01*
X112091248Y-93820448D01*
X112039027Y-93809349D01*
X112005610Y-93794471D01*
X111976564Y-93785660D01*
X111930402Y-93760986D01*
X111876500Y-93736988D01*
X111851443Y-93718783D01*
X111829546Y-93707079D01*
X111784873Y-93670416D01*
X111732570Y-93632416D01*
X111715588Y-93613555D01*
X111700679Y-93601320D01*
X111660610Y-93552496D01*
X111613527Y-93500205D01*
X111603636Y-93483073D01*
X111594920Y-93472453D01*
X111562687Y-93412148D01*
X111524573Y-93346133D01*
X111520186Y-93332634D01*
X111516339Y-93325435D01*
X111495128Y-93255512D01*
X111469596Y-93176933D01*
X111468697Y-93168380D01*
X111467945Y-93165901D01*
X111460613Y-93091467D01*
X111451000Y-93000000D01*
X111460612Y-92908540D01*
X111467945Y-92834098D01*
X111468697Y-92831618D01*
X111469596Y-92823067D01*
X111495123Y-92744502D01*
X111516339Y-92674564D01*
X111520187Y-92667363D01*
X111524573Y-92653867D01*
X111562680Y-92587863D01*
X111594920Y-92527546D01*
X111603638Y-92516923D01*
X111613527Y-92499795D01*
X111660601Y-92447513D01*
X111700679Y-92398679D01*
X111715591Y-92386440D01*
X111732570Y-92367584D01*
X111784862Y-92329591D01*
X111829546Y-92292920D01*
X111851448Y-92281213D01*
X111876500Y-92263012D01*
X111930391Y-92239018D01*
X111976564Y-92214339D01*
X112005617Y-92205525D01*
X112039027Y-92190651D01*
X112091237Y-92179553D01*
X112136098Y-92165945D01*
X112171806Y-92162427D01*
X112213046Y-92153662D01*
X112260801Y-92153662D01*
X112302000Y-92149604D01*
X112343199Y-92153662D01*
G37*
G36*
X94004454Y-88554034D02*
G01*
X94085179Y-88554034D01*
X94159342Y-88563402D01*
X94232465Y-88567826D01*
X94317032Y-88583323D01*
X94403010Y-88594185D01*
X94469602Y-88611283D01*
X94535438Y-88623348D01*
X94623652Y-88650836D01*
X94713302Y-88673855D01*
X94771627Y-88696947D01*
X94829518Y-88714987D01*
X94919676Y-88755564D01*
X95011163Y-88791786D01*
X95060845Y-88819098D01*
X95110396Y-88841400D01*
X95200587Y-88895923D01*
X95291894Y-88946119D01*
X95332877Y-88975895D01*
X95374007Y-89000759D01*
X95462204Y-89069857D01*
X95551069Y-89134421D01*
X95583563Y-89164935D01*
X95616469Y-89190715D01*
X95700498Y-89274744D01*
X95784599Y-89353720D01*
X95809144Y-89383390D01*
X95834284Y-89408530D01*
X95911916Y-89507621D01*
X95988802Y-89600560D01*
X96006169Y-89627926D01*
X96024240Y-89650992D01*
X96093190Y-89765049D01*
X96160458Y-89871046D01*
X96171664Y-89894861D01*
X96183599Y-89914603D01*
X96241652Y-90043592D01*
X96296860Y-90160914D01*
X96303105Y-90180134D01*
X96310012Y-90195481D01*
X96354982Y-90339796D01*
X96395856Y-90465592D01*
X96398498Y-90479443D01*
X96401651Y-90489561D01*
X96431514Y-90652518D01*
X96455885Y-90780275D01*
X96456386Y-90788240D01*
X96457173Y-90792534D01*
X96470060Y-91005584D01*
X96476000Y-91100000D01*
X96470059Y-91194423D01*
X96457173Y-91407465D01*
X96456386Y-91411758D01*
X96455885Y-91419725D01*
X96431509Y-91547505D01*
X96401651Y-91710438D01*
X96398498Y-91720553D01*
X96395856Y-91734408D01*
X96354974Y-91860227D01*
X96310012Y-92004518D01*
X96303106Y-92019861D01*
X96296860Y-92039086D01*
X96241642Y-92156429D01*
X96183599Y-92285396D01*
X96171666Y-92305134D01*
X96160458Y-92328954D01*
X96093177Y-92434971D01*
X96024240Y-92549007D01*
X96006172Y-92572068D01*
X95988802Y-92599440D01*
X95911902Y-92692396D01*
X95834284Y-92791469D01*
X95809149Y-92816603D01*
X95784599Y-92846280D01*
X95700481Y-92925271D01*
X95616469Y-93009284D01*
X95583569Y-93035058D01*
X95551069Y-93065579D01*
X95462187Y-93130155D01*
X95374007Y-93199240D01*
X95332885Y-93224099D01*
X95291894Y-93253881D01*
X95200569Y-93304086D01*
X95110396Y-93358599D01*
X95060855Y-93380895D01*
X95011163Y-93408214D01*
X94919658Y-93444443D01*
X94829518Y-93485012D01*
X94771639Y-93503047D01*
X94713302Y-93526145D01*
X94623634Y-93549167D01*
X94535438Y-93576651D01*
X94469616Y-93588713D01*
X94403010Y-93605815D01*
X94317015Y-93616678D01*
X94232465Y-93632173D01*
X94159357Y-93636595D01*
X94085179Y-93645966D01*
X94004437Y-93645966D01*
X93925000Y-93650771D01*
X93845563Y-93645966D01*
X93764821Y-93645966D01*
X93690642Y-93636595D01*
X93617534Y-93632173D01*
X93532981Y-93616678D01*
X93446990Y-93605815D01*
X93380386Y-93588713D01*
X93314561Y-93576651D01*
X93226359Y-93549166D01*
X93136698Y-93526145D01*
X93078364Y-93503049D01*
X93020481Y-93485012D01*
X92930333Y-93444439D01*
X92838837Y-93408214D01*
X92789149Y-93380898D01*
X92739603Y-93358599D01*
X92649419Y-93304080D01*
X92558106Y-93253881D01*
X92517119Y-93224102D01*
X92475992Y-93199240D01*
X92387798Y-93130145D01*
X92298931Y-93065579D01*
X92266435Y-93035063D01*
X92233530Y-93009284D01*
X92149501Y-92925255D01*
X92065401Y-92846280D01*
X92040855Y-92816609D01*
X92015715Y-92791469D01*
X91938079Y-92692373D01*
X91861198Y-92599440D01*
X91843831Y-92572075D01*
X91825759Y-92549007D01*
X91756801Y-92434937D01*
X91689542Y-92328954D01*
X91678336Y-92305141D01*
X91666400Y-92285396D01*
X91608335Y-92156380D01*
X91553140Y-92039086D01*
X91546896Y-92019869D01*
X91539987Y-92004518D01*
X91495000Y-91860152D01*
X91454144Y-91734408D01*
X91451502Y-91720561D01*
X91448348Y-91710438D01*
X91418465Y-91547372D01*
X91394115Y-91419725D01*
X91393614Y-91411766D01*
X91392826Y-91407465D01*
X91379914Y-91194010D01*
X91374000Y-91100000D01*
X91379914Y-91005996D01*
X91392826Y-90792534D01*
X91393614Y-90788231D01*
X91394115Y-90780275D01*
X91418460Y-90652652D01*
X91448348Y-90489561D01*
X91451503Y-90479435D01*
X91454144Y-90465592D01*
X91494993Y-90339871D01*
X91539987Y-90195481D01*
X91546897Y-90180126D01*
X91553140Y-90160914D01*
X91608324Y-90043640D01*
X91666400Y-89914603D01*
X91678338Y-89894853D01*
X91689542Y-89871046D01*
X91756788Y-89765082D01*
X91825759Y-89650992D01*
X91843835Y-89627919D01*
X91861198Y-89600560D01*
X91938064Y-89507644D01*
X92015715Y-89408530D01*
X92040860Y-89383384D01*
X92065401Y-89353720D01*
X92149485Y-89274759D01*
X92233530Y-89190715D01*
X92266441Y-89164930D01*
X92298931Y-89134421D01*
X92387781Y-89069867D01*
X92475992Y-89000759D01*
X92517127Y-88975891D01*
X92558106Y-88946119D01*
X92649401Y-88895929D01*
X92739603Y-88841400D01*
X92789159Y-88819096D01*
X92838837Y-88791786D01*
X92930314Y-88755567D01*
X93020481Y-88714987D01*
X93078376Y-88696946D01*
X93136698Y-88673855D01*
X93226341Y-88650838D01*
X93314561Y-88623348D01*
X93380399Y-88611282D01*
X93446990Y-88594185D01*
X93532964Y-88583324D01*
X93617534Y-88567826D01*
X93690657Y-88563402D01*
X93764821Y-88554034D01*
X93845546Y-88554034D01*
X93925000Y-88549228D01*
X94004454Y-88554034D01*
G37*
G36*
X117054454Y-88554034D02*
G01*
X117135179Y-88554034D01*
X117209342Y-88563402D01*
X117282465Y-88567826D01*
X117367032Y-88583323D01*
X117453010Y-88594185D01*
X117519602Y-88611283D01*
X117585438Y-88623348D01*
X117673652Y-88650836D01*
X117763302Y-88673855D01*
X117821627Y-88696947D01*
X117879518Y-88714987D01*
X117969676Y-88755564D01*
X118061163Y-88791786D01*
X118110845Y-88819098D01*
X118160396Y-88841400D01*
X118250587Y-88895923D01*
X118341894Y-88946119D01*
X118382877Y-88975895D01*
X118424007Y-89000759D01*
X118512204Y-89069857D01*
X118601069Y-89134421D01*
X118633563Y-89164935D01*
X118666469Y-89190715D01*
X118750498Y-89274744D01*
X118834599Y-89353720D01*
X118859144Y-89383390D01*
X118884284Y-89408530D01*
X118961916Y-89507621D01*
X119038802Y-89600560D01*
X119056169Y-89627926D01*
X119074240Y-89650992D01*
X119143190Y-89765049D01*
X119210458Y-89871046D01*
X119221664Y-89894861D01*
X119233599Y-89914603D01*
X119291652Y-90043592D01*
X119346860Y-90160914D01*
X119353105Y-90180134D01*
X119360012Y-90195481D01*
X119404982Y-90339796D01*
X119445856Y-90465592D01*
X119448498Y-90479443D01*
X119451651Y-90489561D01*
X119481514Y-90652518D01*
X119505885Y-90780275D01*
X119506386Y-90788240D01*
X119507173Y-90792534D01*
X119520060Y-91005584D01*
X119526000Y-91100000D01*
X119520059Y-91194423D01*
X119507173Y-91407465D01*
X119506386Y-91411758D01*
X119505885Y-91419725D01*
X119481509Y-91547505D01*
X119451651Y-91710438D01*
X119448498Y-91720553D01*
X119445856Y-91734408D01*
X119404974Y-91860227D01*
X119360012Y-92004518D01*
X119353106Y-92019861D01*
X119346860Y-92039086D01*
X119291642Y-92156429D01*
X119233599Y-92285396D01*
X119221666Y-92305134D01*
X119210458Y-92328954D01*
X119143177Y-92434971D01*
X119074240Y-92549007D01*
X119056172Y-92572068D01*
X119038802Y-92599440D01*
X118961902Y-92692396D01*
X118884284Y-92791469D01*
X118859149Y-92816603D01*
X118834599Y-92846280D01*
X118750481Y-92925271D01*
X118666469Y-93009284D01*
X118633569Y-93035058D01*
X118601069Y-93065579D01*
X118512187Y-93130155D01*
X118424007Y-93199240D01*
X118382885Y-93224099D01*
X118341894Y-93253881D01*
X118250569Y-93304086D01*
X118160396Y-93358599D01*
X118110855Y-93380895D01*
X118061163Y-93408214D01*
X117969658Y-93444443D01*
X117879518Y-93485012D01*
X117821639Y-93503047D01*
X117763302Y-93526145D01*
X117673634Y-93549167D01*
X117585438Y-93576651D01*
X117519616Y-93588713D01*
X117453010Y-93605815D01*
X117367015Y-93616678D01*
X117282465Y-93632173D01*
X117209357Y-93636595D01*
X117135179Y-93645966D01*
X117054437Y-93645966D01*
X116975000Y-93650771D01*
X116895563Y-93645966D01*
X116814821Y-93645966D01*
X116740642Y-93636595D01*
X116667534Y-93632173D01*
X116582981Y-93616678D01*
X116496990Y-93605815D01*
X116430386Y-93588713D01*
X116364561Y-93576651D01*
X116276359Y-93549166D01*
X116186698Y-93526145D01*
X116128364Y-93503049D01*
X116070481Y-93485012D01*
X115980333Y-93444439D01*
X115888837Y-93408214D01*
X115839149Y-93380898D01*
X115789603Y-93358599D01*
X115699419Y-93304080D01*
X115608106Y-93253881D01*
X115567119Y-93224102D01*
X115525992Y-93199240D01*
X115437798Y-93130145D01*
X115348931Y-93065579D01*
X115316435Y-93035063D01*
X115283530Y-93009284D01*
X115199501Y-92925255D01*
X115115401Y-92846280D01*
X115090855Y-92816609D01*
X115065715Y-92791469D01*
X114988079Y-92692373D01*
X114911198Y-92599440D01*
X114893831Y-92572075D01*
X114875759Y-92549007D01*
X114806801Y-92434937D01*
X114739542Y-92328954D01*
X114728336Y-92305141D01*
X114716400Y-92285396D01*
X114658335Y-92156380D01*
X114603140Y-92039086D01*
X114596896Y-92019869D01*
X114589987Y-92004518D01*
X114545000Y-91860152D01*
X114504144Y-91734408D01*
X114501502Y-91720561D01*
X114498348Y-91710438D01*
X114468465Y-91547372D01*
X114444115Y-91419725D01*
X114443614Y-91411766D01*
X114442826Y-91407465D01*
X114429914Y-91194010D01*
X114424000Y-91100000D01*
X114429914Y-91005996D01*
X114442826Y-90792534D01*
X114443614Y-90788231D01*
X114444115Y-90780275D01*
X114468460Y-90652652D01*
X114498348Y-90489561D01*
X114501503Y-90479435D01*
X114504144Y-90465592D01*
X114544993Y-90339871D01*
X114589987Y-90195481D01*
X114596897Y-90180126D01*
X114603140Y-90160914D01*
X114658324Y-90043640D01*
X114716400Y-89914603D01*
X114728338Y-89894853D01*
X114739542Y-89871046D01*
X114806788Y-89765082D01*
X114875759Y-89650992D01*
X114893835Y-89627919D01*
X114911198Y-89600560D01*
X114988064Y-89507644D01*
X115065715Y-89408530D01*
X115090860Y-89383384D01*
X115115401Y-89353720D01*
X115199485Y-89274759D01*
X115283530Y-89190715D01*
X115316441Y-89164930D01*
X115348931Y-89134421D01*
X115437781Y-89069867D01*
X115525992Y-89000759D01*
X115567127Y-88975891D01*
X115608106Y-88946119D01*
X115699401Y-88895929D01*
X115789603Y-88841400D01*
X115839159Y-88819096D01*
X115888837Y-88791786D01*
X115980314Y-88755567D01*
X116070481Y-88714987D01*
X116128376Y-88696946D01*
X116186698Y-88673855D01*
X116276341Y-88650838D01*
X116364561Y-88623348D01*
X116430399Y-88611282D01*
X116496990Y-88594185D01*
X116582964Y-88583324D01*
X116667534Y-88567826D01*
X116740657Y-88563402D01*
X116814821Y-88554034D01*
X116895546Y-88554034D01*
X116975000Y-88549228D01*
X117054454Y-88554034D01*
G37*
G36*
X155291199Y-90153662D02*
G01*
X155338954Y-90153662D01*
X155380194Y-90162427D01*
X155415901Y-90165945D01*
X155460759Y-90179552D01*
X155512973Y-90190651D01*
X155546384Y-90205526D01*
X155575435Y-90214339D01*
X155621602Y-90239015D01*
X155675500Y-90263012D01*
X155700554Y-90281215D01*
X155722453Y-90292920D01*
X155767128Y-90329584D01*
X155819430Y-90367584D01*
X155836411Y-90386443D01*
X155851320Y-90398679D01*
X155891387Y-90447501D01*
X155938473Y-90499795D01*
X155948364Y-90516927D01*
X155957079Y-90527546D01*
X155989306Y-90587840D01*
X156027427Y-90653867D01*
X156031813Y-90667368D01*
X156035660Y-90674564D01*
X156056861Y-90744455D01*
X156082404Y-90823067D01*
X156083303Y-90831623D01*
X156084054Y-90834098D01*
X156091371Y-90908389D01*
X156101000Y-91000000D01*
X156091370Y-91091619D01*
X156084054Y-91165901D01*
X156083303Y-91168375D01*
X156082404Y-91176933D01*
X156056856Y-91255558D01*
X156035660Y-91325435D01*
X156031814Y-91332629D01*
X156027427Y-91346133D01*
X155989299Y-91412172D01*
X155957079Y-91472453D01*
X155948366Y-91483069D01*
X155938473Y-91500205D01*
X155891378Y-91552509D01*
X155851320Y-91601320D01*
X155836414Y-91613552D01*
X155819430Y-91632416D01*
X155767118Y-91670423D01*
X155722453Y-91707079D01*
X155700559Y-91718780D01*
X155675500Y-91736988D01*
X155621591Y-91760989D01*
X155575435Y-91785660D01*
X155546391Y-91794470D01*
X155512973Y-91809349D01*
X155460748Y-91820449D01*
X155415901Y-91834054D01*
X155380203Y-91837570D01*
X155338954Y-91846338D01*
X155291188Y-91846338D01*
X155250000Y-91850395D01*
X155208811Y-91846338D01*
X155161046Y-91846338D01*
X155119797Y-91837570D01*
X155084098Y-91834054D01*
X155039248Y-91820448D01*
X154987027Y-91809349D01*
X154953610Y-91794471D01*
X154924564Y-91785660D01*
X154878402Y-91760986D01*
X154824500Y-91736988D01*
X154799443Y-91718783D01*
X154777546Y-91707079D01*
X154732873Y-91670416D01*
X154680570Y-91632416D01*
X154663588Y-91613555D01*
X154648679Y-91601320D01*
X154608610Y-91552496D01*
X154561527Y-91500205D01*
X154551636Y-91483073D01*
X154542920Y-91472453D01*
X154510687Y-91412148D01*
X154472573Y-91346133D01*
X154468186Y-91332634D01*
X154464339Y-91325435D01*
X154443128Y-91255512D01*
X154417596Y-91176933D01*
X154416697Y-91168380D01*
X154415945Y-91165901D01*
X154408613Y-91091467D01*
X154399000Y-91000000D01*
X154408612Y-90908540D01*
X154415945Y-90834098D01*
X154416697Y-90831618D01*
X154417596Y-90823067D01*
X154443123Y-90744502D01*
X154464339Y-90674564D01*
X154468187Y-90667363D01*
X154472573Y-90653867D01*
X154510680Y-90587863D01*
X154542920Y-90527546D01*
X154551638Y-90516923D01*
X154561527Y-90499795D01*
X154608601Y-90447513D01*
X154648679Y-90398679D01*
X154663591Y-90386440D01*
X154680570Y-90367584D01*
X154732862Y-90329591D01*
X154777546Y-90292920D01*
X154799448Y-90281213D01*
X154824500Y-90263012D01*
X154878391Y-90239018D01*
X154924564Y-90214339D01*
X154953617Y-90205525D01*
X154987027Y-90190651D01*
X155039237Y-90179553D01*
X155084098Y-90165945D01*
X155119806Y-90162427D01*
X155161046Y-90153662D01*
X155208801Y-90153662D01*
X155250000Y-90149604D01*
X155291199Y-90153662D01*
G37*
G36*
X157791199Y-90153662D02*
G01*
X157838954Y-90153662D01*
X157880194Y-90162427D01*
X157915901Y-90165945D01*
X157960759Y-90179552D01*
X158012973Y-90190651D01*
X158046384Y-90205526D01*
X158075435Y-90214339D01*
X158121602Y-90239015D01*
X158175500Y-90263012D01*
X158200554Y-90281215D01*
X158222453Y-90292920D01*
X158267128Y-90329584D01*
X158319430Y-90367584D01*
X158336411Y-90386443D01*
X158351320Y-90398679D01*
X158391387Y-90447501D01*
X158438473Y-90499795D01*
X158448364Y-90516927D01*
X158457079Y-90527546D01*
X158489306Y-90587840D01*
X158527427Y-90653867D01*
X158531813Y-90667368D01*
X158535660Y-90674564D01*
X158556861Y-90744455D01*
X158582404Y-90823067D01*
X158583303Y-90831623D01*
X158584054Y-90834098D01*
X158591371Y-90908389D01*
X158601000Y-91000000D01*
X158591370Y-91091619D01*
X158584054Y-91165901D01*
X158583303Y-91168375D01*
X158582404Y-91176933D01*
X158556856Y-91255558D01*
X158535660Y-91325435D01*
X158531814Y-91332629D01*
X158527427Y-91346133D01*
X158489299Y-91412172D01*
X158457079Y-91472453D01*
X158448366Y-91483069D01*
X158438473Y-91500205D01*
X158391378Y-91552509D01*
X158351320Y-91601320D01*
X158336414Y-91613552D01*
X158319430Y-91632416D01*
X158267118Y-91670423D01*
X158222453Y-91707079D01*
X158200559Y-91718780D01*
X158175500Y-91736988D01*
X158121591Y-91760989D01*
X158075435Y-91785660D01*
X158046391Y-91794470D01*
X158012973Y-91809349D01*
X157960748Y-91820449D01*
X157915901Y-91834054D01*
X157880203Y-91837570D01*
X157838954Y-91846338D01*
X157791188Y-91846338D01*
X157750000Y-91850395D01*
X157708811Y-91846338D01*
X157661046Y-91846338D01*
X157619797Y-91837570D01*
X157584098Y-91834054D01*
X157539248Y-91820448D01*
X157487027Y-91809349D01*
X157453610Y-91794471D01*
X157424564Y-91785660D01*
X157378402Y-91760986D01*
X157324500Y-91736988D01*
X157299443Y-91718783D01*
X157277546Y-91707079D01*
X157232873Y-91670416D01*
X157180570Y-91632416D01*
X157163588Y-91613555D01*
X157148679Y-91601320D01*
X157108610Y-91552496D01*
X157061527Y-91500205D01*
X157051636Y-91483073D01*
X157042920Y-91472453D01*
X157010687Y-91412148D01*
X156972573Y-91346133D01*
X156968186Y-91332634D01*
X156964339Y-91325435D01*
X156943128Y-91255512D01*
X156917596Y-91176933D01*
X156916697Y-91168380D01*
X156915945Y-91165901D01*
X156908613Y-91091467D01*
X156899000Y-91000000D01*
X156908612Y-90908540D01*
X156915945Y-90834098D01*
X156916697Y-90831618D01*
X156917596Y-90823067D01*
X156943123Y-90744502D01*
X156964339Y-90674564D01*
X156968187Y-90667363D01*
X156972573Y-90653867D01*
X157010680Y-90587863D01*
X157042920Y-90527546D01*
X157051638Y-90516923D01*
X157061527Y-90499795D01*
X157108601Y-90447513D01*
X157148679Y-90398679D01*
X157163591Y-90386440D01*
X157180570Y-90367584D01*
X157232862Y-90329591D01*
X157277546Y-90292920D01*
X157299448Y-90281213D01*
X157324500Y-90263012D01*
X157378391Y-90239018D01*
X157424564Y-90214339D01*
X157453617Y-90205525D01*
X157487027Y-90190651D01*
X157539237Y-90179553D01*
X157584098Y-90165945D01*
X157619806Y-90162427D01*
X157661046Y-90153662D01*
X157708801Y-90153662D01*
X157750000Y-90149604D01*
X157791199Y-90153662D01*
G37*
G36*
X137041199Y-89903662D02*
G01*
X137088954Y-89903662D01*
X137130194Y-89912427D01*
X137165901Y-89915945D01*
X137210759Y-89929552D01*
X137262973Y-89940651D01*
X137296384Y-89955526D01*
X137325435Y-89964339D01*
X137371602Y-89989015D01*
X137425500Y-90013012D01*
X137450554Y-90031215D01*
X137472453Y-90042920D01*
X137517128Y-90079584D01*
X137569430Y-90117584D01*
X137586411Y-90136443D01*
X137601320Y-90148679D01*
X137641387Y-90197501D01*
X137688473Y-90249795D01*
X137698364Y-90266927D01*
X137707079Y-90277546D01*
X137739306Y-90337840D01*
X137777427Y-90403867D01*
X137781813Y-90417368D01*
X137785660Y-90424564D01*
X137806861Y-90494455D01*
X137832404Y-90573067D01*
X137833303Y-90581623D01*
X137834054Y-90584098D01*
X137841371Y-90658389D01*
X137851000Y-90750000D01*
X137841370Y-90841619D01*
X137834054Y-90915901D01*
X137833303Y-90918375D01*
X137832404Y-90926933D01*
X137806856Y-91005558D01*
X137785660Y-91075435D01*
X137781814Y-91082629D01*
X137777427Y-91096133D01*
X137739299Y-91162172D01*
X137707079Y-91222453D01*
X137698366Y-91233069D01*
X137688473Y-91250205D01*
X137641378Y-91302509D01*
X137601320Y-91351320D01*
X137586414Y-91363552D01*
X137569430Y-91382416D01*
X137517118Y-91420423D01*
X137472453Y-91457079D01*
X137450559Y-91468780D01*
X137425500Y-91486988D01*
X137371591Y-91510989D01*
X137325435Y-91535660D01*
X137296391Y-91544470D01*
X137262973Y-91559349D01*
X137210748Y-91570449D01*
X137165901Y-91584054D01*
X137130203Y-91587570D01*
X137088954Y-91596338D01*
X137041188Y-91596338D01*
X137000000Y-91600395D01*
X136958811Y-91596338D01*
X136911046Y-91596338D01*
X136869797Y-91587570D01*
X136834098Y-91584054D01*
X136789248Y-91570448D01*
X136737027Y-91559349D01*
X136703610Y-91544471D01*
X136674564Y-91535660D01*
X136628402Y-91510986D01*
X136574500Y-91486988D01*
X136549443Y-91468783D01*
X136527546Y-91457079D01*
X136482873Y-91420416D01*
X136430570Y-91382416D01*
X136413588Y-91363555D01*
X136398679Y-91351320D01*
X136358610Y-91302496D01*
X136311527Y-91250205D01*
X136301636Y-91233073D01*
X136292920Y-91222453D01*
X136260687Y-91162148D01*
X136222573Y-91096133D01*
X136218186Y-91082634D01*
X136214339Y-91075435D01*
X136193128Y-91005512D01*
X136167596Y-90926933D01*
X136166697Y-90918380D01*
X136165945Y-90915901D01*
X136158613Y-90841467D01*
X136149000Y-90750000D01*
X136158612Y-90658540D01*
X136165945Y-90584098D01*
X136166697Y-90581618D01*
X136167596Y-90573067D01*
X136193123Y-90494502D01*
X136214339Y-90424564D01*
X136218187Y-90417363D01*
X136222573Y-90403867D01*
X136260680Y-90337863D01*
X136292920Y-90277546D01*
X136301638Y-90266923D01*
X136311527Y-90249795D01*
X136358601Y-90197513D01*
X136398679Y-90148679D01*
X136413591Y-90136440D01*
X136430570Y-90117584D01*
X136482862Y-90079591D01*
X136527546Y-90042920D01*
X136549448Y-90031213D01*
X136574500Y-90013012D01*
X136628391Y-89989018D01*
X136674564Y-89964339D01*
X136703617Y-89955525D01*
X136737027Y-89940651D01*
X136789237Y-89929553D01*
X136834098Y-89915945D01*
X136869806Y-89912427D01*
X136911046Y-89903662D01*
X136958801Y-89903662D01*
X137000000Y-89899604D01*
X137041199Y-89903662D01*
G37*
G36*
X102096604Y-89453590D02*
G01*
X102137696Y-89453590D01*
X102183456Y-89462144D01*
X102235531Y-89467273D01*
X102275091Y-89479273D01*
X102310111Y-89485820D01*
X102358617Y-89504611D01*
X102413932Y-89521391D01*
X102445534Y-89538282D01*
X102473656Y-89549177D01*
X102522513Y-89579428D01*
X102578347Y-89609272D01*
X102601809Y-89628526D01*
X102622784Y-89641514D01*
X102669256Y-89683879D01*
X102722459Y-89727541D01*
X102738224Y-89746751D01*
X102752400Y-89759674D01*
X102793557Y-89814174D01*
X102840728Y-89871653D01*
X102849848Y-89888717D01*
X102858099Y-89899642D01*
X102890925Y-89965566D01*
X102928609Y-90036068D01*
X102932628Y-90049316D01*
X102936282Y-90056655D01*
X102957864Y-90132507D01*
X102982727Y-90214469D01*
X102983543Y-90222762D01*
X102984280Y-90225350D01*
X102991937Y-90307982D01*
X103001000Y-90400000D01*
X102991936Y-90492026D01*
X102984280Y-90574649D01*
X102983544Y-90577235D01*
X102982727Y-90585531D01*
X102957859Y-90667507D01*
X102936282Y-90743344D01*
X102932628Y-90750680D01*
X102928609Y-90763932D01*
X102890917Y-90834447D01*
X102858099Y-90900357D01*
X102849850Y-90911279D01*
X102840728Y-90928347D01*
X102793547Y-90985836D01*
X102752400Y-91040325D01*
X102738227Y-91053244D01*
X102722459Y-91072459D01*
X102669245Y-91116129D01*
X102622784Y-91158485D01*
X102601814Y-91171469D01*
X102578347Y-91190728D01*
X102522502Y-91220577D01*
X102473656Y-91250822D01*
X102445541Y-91261713D01*
X102413932Y-91278609D01*
X102358605Y-91295392D01*
X102310111Y-91314179D01*
X102275098Y-91320724D01*
X102235531Y-91332727D01*
X102183453Y-91337856D01*
X102137696Y-91346410D01*
X102096604Y-91346410D01*
X102050000Y-91351000D01*
X102003396Y-91346410D01*
X101962304Y-91346410D01*
X101916545Y-91337856D01*
X101864469Y-91332727D01*
X101824902Y-91320724D01*
X101789888Y-91314179D01*
X101741389Y-91295390D01*
X101686068Y-91278609D01*
X101654461Y-91261714D01*
X101626343Y-91250822D01*
X101577490Y-91220573D01*
X101521653Y-91190728D01*
X101498188Y-91171471D01*
X101477215Y-91158485D01*
X101430744Y-91116121D01*
X101377541Y-91072459D01*
X101361775Y-91053248D01*
X101347599Y-91040325D01*
X101306439Y-90985821D01*
X101259272Y-90928347D01*
X101250151Y-90911284D01*
X101241900Y-90900357D01*
X101209067Y-90834420D01*
X101171391Y-90763932D01*
X101167372Y-90750685D01*
X101163717Y-90743344D01*
X101142124Y-90667454D01*
X101117273Y-90585531D01*
X101116456Y-90577241D01*
X101115719Y-90574649D01*
X101108046Y-90491854D01*
X101099000Y-90400000D01*
X101108045Y-90308153D01*
X101115719Y-90225350D01*
X101116456Y-90222757D01*
X101117273Y-90214469D01*
X101142119Y-90132560D01*
X101163717Y-90056655D01*
X101167373Y-90049311D01*
X101171391Y-90036068D01*
X101209060Y-89965593D01*
X101241900Y-89899642D01*
X101250153Y-89888712D01*
X101259272Y-89871653D01*
X101306430Y-89814190D01*
X101347599Y-89759674D01*
X101361778Y-89746747D01*
X101377541Y-89727541D01*
X101430733Y-89683887D01*
X101477215Y-89641514D01*
X101498193Y-89628524D01*
X101521653Y-89609272D01*
X101577478Y-89579432D01*
X101626343Y-89549177D01*
X101654467Y-89538281D01*
X101686068Y-89521391D01*
X101741377Y-89504612D01*
X101789888Y-89485820D01*
X101824909Y-89479273D01*
X101864469Y-89467273D01*
X101916542Y-89462144D01*
X101962304Y-89453590D01*
X102003396Y-89453590D01*
X102050000Y-89449000D01*
X102096604Y-89453590D01*
G37*
G36*
X105496604Y-89453590D02*
G01*
X105537696Y-89453590D01*
X105583456Y-89462144D01*
X105635531Y-89467273D01*
X105675091Y-89479273D01*
X105710111Y-89485820D01*
X105758617Y-89504611D01*
X105813932Y-89521391D01*
X105845534Y-89538282D01*
X105873656Y-89549177D01*
X105922513Y-89579428D01*
X105978347Y-89609272D01*
X106001809Y-89628526D01*
X106022784Y-89641514D01*
X106069256Y-89683879D01*
X106122459Y-89727541D01*
X106138224Y-89746751D01*
X106152400Y-89759674D01*
X106193557Y-89814174D01*
X106240728Y-89871653D01*
X106249848Y-89888717D01*
X106258099Y-89899642D01*
X106290925Y-89965566D01*
X106328609Y-90036068D01*
X106332628Y-90049316D01*
X106336282Y-90056655D01*
X106357864Y-90132507D01*
X106382727Y-90214469D01*
X106383543Y-90222762D01*
X106384280Y-90225350D01*
X106391937Y-90307982D01*
X106401000Y-90400000D01*
X106391936Y-90492026D01*
X106384280Y-90574649D01*
X106383544Y-90577235D01*
X106382727Y-90585531D01*
X106357859Y-90667507D01*
X106336282Y-90743344D01*
X106332628Y-90750680D01*
X106328609Y-90763932D01*
X106290917Y-90834447D01*
X106258099Y-90900357D01*
X106249850Y-90911279D01*
X106240728Y-90928347D01*
X106193547Y-90985836D01*
X106152400Y-91040325D01*
X106138227Y-91053244D01*
X106122459Y-91072459D01*
X106069245Y-91116129D01*
X106022784Y-91158485D01*
X106001814Y-91171469D01*
X105978347Y-91190728D01*
X105922502Y-91220577D01*
X105873656Y-91250822D01*
X105845541Y-91261713D01*
X105813932Y-91278609D01*
X105758605Y-91295392D01*
X105710111Y-91314179D01*
X105675098Y-91320724D01*
X105635531Y-91332727D01*
X105583453Y-91337856D01*
X105537696Y-91346410D01*
X105496604Y-91346410D01*
X105450000Y-91351000D01*
X105403396Y-91346410D01*
X105362304Y-91346410D01*
X105316545Y-91337856D01*
X105264469Y-91332727D01*
X105224902Y-91320724D01*
X105189888Y-91314179D01*
X105141389Y-91295390D01*
X105086068Y-91278609D01*
X105054461Y-91261714D01*
X105026343Y-91250822D01*
X104977490Y-91220573D01*
X104921653Y-91190728D01*
X104898188Y-91171471D01*
X104877215Y-91158485D01*
X104830744Y-91116121D01*
X104777541Y-91072459D01*
X104761775Y-91053248D01*
X104747599Y-91040325D01*
X104706439Y-90985821D01*
X104659272Y-90928347D01*
X104650151Y-90911284D01*
X104641900Y-90900357D01*
X104609067Y-90834420D01*
X104571391Y-90763932D01*
X104567372Y-90750685D01*
X104563717Y-90743344D01*
X104542124Y-90667454D01*
X104517273Y-90585531D01*
X104516456Y-90577241D01*
X104515719Y-90574649D01*
X104508046Y-90491854D01*
X104499000Y-90400000D01*
X104508045Y-90308153D01*
X104515719Y-90225350D01*
X104516456Y-90222757D01*
X104517273Y-90214469D01*
X104542119Y-90132560D01*
X104563717Y-90056655D01*
X104567373Y-90049311D01*
X104571391Y-90036068D01*
X104609060Y-89965593D01*
X104641900Y-89899642D01*
X104650153Y-89888712D01*
X104659272Y-89871653D01*
X104706430Y-89814190D01*
X104747599Y-89759674D01*
X104761778Y-89746747D01*
X104777541Y-89727541D01*
X104830733Y-89683887D01*
X104877215Y-89641514D01*
X104898193Y-89628524D01*
X104921653Y-89609272D01*
X104977478Y-89579432D01*
X105026343Y-89549177D01*
X105054467Y-89538281D01*
X105086068Y-89521391D01*
X105141377Y-89504612D01*
X105189888Y-89485820D01*
X105224909Y-89479273D01*
X105264469Y-89467273D01*
X105316542Y-89462144D01*
X105362304Y-89453590D01*
X105403396Y-89453590D01*
X105450000Y-89449000D01*
X105496604Y-89453590D01*
G37*
G36*
X109769517Y-89452882D02*
G01*
X109786062Y-89463938D01*
X109797118Y-89480483D01*
X109801000Y-89500000D01*
X109801000Y-91300000D01*
X109797118Y-91319517D01*
X109786062Y-91336062D01*
X109769517Y-91347118D01*
X109750000Y-91351000D01*
X107950000Y-91351000D01*
X107930483Y-91347118D01*
X107913938Y-91336062D01*
X107902882Y-91319517D01*
X107899000Y-91300000D01*
X107899000Y-89500000D01*
X107902882Y-89480483D01*
X107913938Y-89463938D01*
X107930483Y-89452882D01*
X107950000Y-89449000D01*
X109750000Y-89449000D01*
X109769517Y-89452882D01*
G37*
G36*
X112343199Y-89653662D02*
G01*
X112390954Y-89653662D01*
X112432194Y-89662427D01*
X112467901Y-89665945D01*
X112512759Y-89679552D01*
X112564973Y-89690651D01*
X112598384Y-89705526D01*
X112627435Y-89714339D01*
X112673602Y-89739015D01*
X112727500Y-89763012D01*
X112752554Y-89781215D01*
X112774453Y-89792920D01*
X112819128Y-89829584D01*
X112871430Y-89867584D01*
X112888411Y-89886443D01*
X112903320Y-89898679D01*
X112943387Y-89947501D01*
X112990473Y-89999795D01*
X113000364Y-90016927D01*
X113009079Y-90027546D01*
X113041306Y-90087840D01*
X113079427Y-90153867D01*
X113083813Y-90167368D01*
X113087660Y-90174564D01*
X113108861Y-90244455D01*
X113134404Y-90323067D01*
X113135303Y-90331623D01*
X113136054Y-90334098D01*
X113143371Y-90408389D01*
X113153000Y-90500000D01*
X113143370Y-90591619D01*
X113136054Y-90665901D01*
X113135303Y-90668375D01*
X113134404Y-90676933D01*
X113108856Y-90755558D01*
X113087660Y-90825435D01*
X113083814Y-90832629D01*
X113079427Y-90846133D01*
X113041299Y-90912172D01*
X113009079Y-90972453D01*
X113000366Y-90983069D01*
X112990473Y-91000205D01*
X112943378Y-91052509D01*
X112903320Y-91101320D01*
X112888414Y-91113552D01*
X112871430Y-91132416D01*
X112819118Y-91170423D01*
X112774453Y-91207079D01*
X112752559Y-91218780D01*
X112727500Y-91236988D01*
X112673591Y-91260989D01*
X112627435Y-91285660D01*
X112598391Y-91294470D01*
X112564973Y-91309349D01*
X112512748Y-91320449D01*
X112467901Y-91334054D01*
X112432203Y-91337570D01*
X112390954Y-91346338D01*
X112343188Y-91346338D01*
X112302000Y-91350395D01*
X112260811Y-91346338D01*
X112213046Y-91346338D01*
X112171797Y-91337570D01*
X112136098Y-91334054D01*
X112091248Y-91320448D01*
X112039027Y-91309349D01*
X112005610Y-91294471D01*
X111976564Y-91285660D01*
X111930402Y-91260986D01*
X111876500Y-91236988D01*
X111851443Y-91218783D01*
X111829546Y-91207079D01*
X111784873Y-91170416D01*
X111732570Y-91132416D01*
X111715588Y-91113555D01*
X111700679Y-91101320D01*
X111660610Y-91052496D01*
X111613527Y-91000205D01*
X111603636Y-90983073D01*
X111594920Y-90972453D01*
X111562687Y-90912148D01*
X111524573Y-90846133D01*
X111520186Y-90832634D01*
X111516339Y-90825435D01*
X111495128Y-90755512D01*
X111469596Y-90676933D01*
X111468697Y-90668380D01*
X111467945Y-90665901D01*
X111460613Y-90591467D01*
X111451000Y-90500000D01*
X111460612Y-90408540D01*
X111467945Y-90334098D01*
X111468697Y-90331618D01*
X111469596Y-90323067D01*
X111495123Y-90244502D01*
X111516339Y-90174564D01*
X111520187Y-90167363D01*
X111524573Y-90153867D01*
X111562680Y-90087863D01*
X111594920Y-90027546D01*
X111603638Y-90016923D01*
X111613527Y-89999795D01*
X111660601Y-89947513D01*
X111700679Y-89898679D01*
X111715591Y-89886440D01*
X111732570Y-89867584D01*
X111784862Y-89829591D01*
X111829546Y-89792920D01*
X111851448Y-89781213D01*
X111876500Y-89763012D01*
X111930391Y-89739018D01*
X111976564Y-89714339D01*
X112005617Y-89705525D01*
X112039027Y-89690651D01*
X112091237Y-89679553D01*
X112136098Y-89665945D01*
X112171806Y-89662427D01*
X112213046Y-89653662D01*
X112260801Y-89653662D01*
X112302000Y-89649604D01*
X112343199Y-89653662D01*
G37*
G36*
X137041199Y-87403662D02*
G01*
X137088954Y-87403662D01*
X137130194Y-87412427D01*
X137165901Y-87415945D01*
X137210759Y-87429552D01*
X137262973Y-87440651D01*
X137296384Y-87455526D01*
X137325435Y-87464339D01*
X137371602Y-87489015D01*
X137425500Y-87513012D01*
X137450554Y-87531215D01*
X137472453Y-87542920D01*
X137517128Y-87579584D01*
X137569430Y-87617584D01*
X137586411Y-87636443D01*
X137601320Y-87648679D01*
X137641387Y-87697501D01*
X137688473Y-87749795D01*
X137698364Y-87766927D01*
X137707079Y-87777546D01*
X137739306Y-87837840D01*
X137777427Y-87903867D01*
X137781813Y-87917368D01*
X137785660Y-87924564D01*
X137806861Y-87994455D01*
X137832404Y-88073067D01*
X137833303Y-88081623D01*
X137834054Y-88084098D01*
X137841371Y-88158389D01*
X137851000Y-88250000D01*
X137841370Y-88341619D01*
X137834054Y-88415901D01*
X137833303Y-88418375D01*
X137832404Y-88426933D01*
X137806856Y-88505558D01*
X137785660Y-88575435D01*
X137781814Y-88582629D01*
X137777427Y-88596133D01*
X137739299Y-88662172D01*
X137707079Y-88722453D01*
X137698366Y-88733069D01*
X137688473Y-88750205D01*
X137641378Y-88802509D01*
X137601320Y-88851320D01*
X137586414Y-88863552D01*
X137569430Y-88882416D01*
X137517118Y-88920423D01*
X137472453Y-88957079D01*
X137450559Y-88968780D01*
X137425500Y-88986988D01*
X137371591Y-89010989D01*
X137325435Y-89035660D01*
X137296391Y-89044470D01*
X137262973Y-89059349D01*
X137210748Y-89070449D01*
X137165901Y-89084054D01*
X137130203Y-89087570D01*
X137088954Y-89096338D01*
X137041188Y-89096338D01*
X137000000Y-89100395D01*
X136958811Y-89096338D01*
X136911046Y-89096338D01*
X136869797Y-89087570D01*
X136834098Y-89084054D01*
X136789248Y-89070448D01*
X136737027Y-89059349D01*
X136703610Y-89044471D01*
X136674564Y-89035660D01*
X136628402Y-89010986D01*
X136574500Y-88986988D01*
X136549443Y-88968783D01*
X136527546Y-88957079D01*
X136482873Y-88920416D01*
X136430570Y-88882416D01*
X136413588Y-88863555D01*
X136398679Y-88851320D01*
X136358610Y-88802496D01*
X136311527Y-88750205D01*
X136301636Y-88733073D01*
X136292920Y-88722453D01*
X136260687Y-88662148D01*
X136222573Y-88596133D01*
X136218186Y-88582634D01*
X136214339Y-88575435D01*
X136193128Y-88505512D01*
X136167596Y-88426933D01*
X136166697Y-88418380D01*
X136165945Y-88415901D01*
X136158613Y-88341467D01*
X136149000Y-88250000D01*
X136158612Y-88158540D01*
X136165945Y-88084098D01*
X136166697Y-88081618D01*
X136167596Y-88073067D01*
X136193123Y-87994502D01*
X136214339Y-87924564D01*
X136218187Y-87917363D01*
X136222573Y-87903867D01*
X136260680Y-87837863D01*
X136292920Y-87777546D01*
X136301638Y-87766923D01*
X136311527Y-87749795D01*
X136358601Y-87697513D01*
X136398679Y-87648679D01*
X136413591Y-87636440D01*
X136430570Y-87617584D01*
X136482862Y-87579591D01*
X136527546Y-87542920D01*
X136549448Y-87531213D01*
X136574500Y-87513012D01*
X136628391Y-87489018D01*
X136674564Y-87464339D01*
X136703617Y-87455525D01*
X136737027Y-87440651D01*
X136789237Y-87429553D01*
X136834098Y-87415945D01*
X136869806Y-87412427D01*
X136911046Y-87403662D01*
X136958801Y-87403662D01*
X137000000Y-87399604D01*
X137041199Y-87403662D01*
G37*
G36*
X157013199Y-87291662D02*
G01*
X157060954Y-87291662D01*
X157102194Y-87300427D01*
X157137901Y-87303945D01*
X157182759Y-87317552D01*
X157234973Y-87328651D01*
X157268384Y-87343526D01*
X157297435Y-87352339D01*
X157343602Y-87377015D01*
X157397500Y-87401012D01*
X157422554Y-87419215D01*
X157444453Y-87430920D01*
X157489128Y-87467584D01*
X157541430Y-87505584D01*
X157558411Y-87524443D01*
X157573320Y-87536679D01*
X157613387Y-87585501D01*
X157660473Y-87637795D01*
X157670364Y-87654927D01*
X157679079Y-87665546D01*
X157711306Y-87725840D01*
X157749427Y-87791867D01*
X157753813Y-87805368D01*
X157757660Y-87812564D01*
X157778861Y-87882455D01*
X157804404Y-87961067D01*
X157805303Y-87969623D01*
X157806054Y-87972098D01*
X157813371Y-88046389D01*
X157823000Y-88138000D01*
X157813370Y-88229619D01*
X157806054Y-88303901D01*
X157805303Y-88306375D01*
X157804404Y-88314933D01*
X157778856Y-88393558D01*
X157757660Y-88463435D01*
X157753814Y-88470629D01*
X157749427Y-88484133D01*
X157711299Y-88550172D01*
X157679079Y-88610453D01*
X157670366Y-88621069D01*
X157660473Y-88638205D01*
X157613378Y-88690509D01*
X157573320Y-88739320D01*
X157558414Y-88751552D01*
X157541430Y-88770416D01*
X157489118Y-88808423D01*
X157444453Y-88845079D01*
X157422559Y-88856780D01*
X157397500Y-88874988D01*
X157343591Y-88898989D01*
X157297435Y-88923660D01*
X157268391Y-88932470D01*
X157234973Y-88947349D01*
X157182748Y-88958449D01*
X157137901Y-88972054D01*
X157102203Y-88975570D01*
X157060954Y-88984338D01*
X157013188Y-88984338D01*
X156972000Y-88988395D01*
X156930811Y-88984338D01*
X156883046Y-88984338D01*
X156841797Y-88975570D01*
X156806098Y-88972054D01*
X156761248Y-88958448D01*
X156709027Y-88947349D01*
X156675610Y-88932471D01*
X156646564Y-88923660D01*
X156600402Y-88898986D01*
X156546500Y-88874988D01*
X156521443Y-88856783D01*
X156499546Y-88845079D01*
X156454873Y-88808416D01*
X156402570Y-88770416D01*
X156385588Y-88751555D01*
X156370679Y-88739320D01*
X156330610Y-88690496D01*
X156283527Y-88638205D01*
X156273636Y-88621073D01*
X156264920Y-88610453D01*
X156232687Y-88550148D01*
X156194573Y-88484133D01*
X156190186Y-88470634D01*
X156186339Y-88463435D01*
X156165128Y-88393512D01*
X156139596Y-88314933D01*
X156138697Y-88306380D01*
X156137945Y-88303901D01*
X156130613Y-88229467D01*
X156121000Y-88138000D01*
X156130612Y-88046540D01*
X156137945Y-87972098D01*
X156138697Y-87969618D01*
X156139596Y-87961067D01*
X156165123Y-87882502D01*
X156186339Y-87812564D01*
X156190187Y-87805363D01*
X156194573Y-87791867D01*
X156232680Y-87725863D01*
X156264920Y-87665546D01*
X156273638Y-87654923D01*
X156283527Y-87637795D01*
X156330601Y-87585513D01*
X156370679Y-87536679D01*
X156385591Y-87524440D01*
X156402570Y-87505584D01*
X156454862Y-87467591D01*
X156499546Y-87430920D01*
X156521448Y-87419213D01*
X156546500Y-87401012D01*
X156600391Y-87377018D01*
X156646564Y-87352339D01*
X156675617Y-87343525D01*
X156709027Y-87328651D01*
X156761237Y-87317553D01*
X156806098Y-87303945D01*
X156841806Y-87300427D01*
X156883046Y-87291662D01*
X156930801Y-87291662D01*
X156972000Y-87287604D01*
X157013199Y-87291662D01*
G37*
G36*
X147269517Y-85366882D02*
G01*
X147286062Y-85377938D01*
X147297118Y-85394483D01*
X147301000Y-85414000D01*
X147301000Y-87814000D01*
X147297118Y-87833517D01*
X147286062Y-87850062D01*
X147269517Y-87861118D01*
X147250000Y-87865000D01*
X144850000Y-87865000D01*
X144830483Y-87861118D01*
X144813938Y-87850062D01*
X144802882Y-87833517D01*
X144799000Y-87814000D01*
X144799000Y-85414000D01*
X144802882Y-85394483D01*
X144813938Y-85377938D01*
X144830483Y-85366882D01*
X144850000Y-85363000D01*
X147250000Y-85363000D01*
X147269517Y-85366882D01*
G37*
G36*
X125219517Y-81752882D02*
G01*
X125236062Y-81763938D01*
X125247118Y-81780483D01*
X125251000Y-81800000D01*
X125251000Y-84200000D01*
X125247118Y-84219517D01*
X125236062Y-84236062D01*
X125219517Y-84247118D01*
X125200000Y-84251000D01*
X122800000Y-84251000D01*
X122780483Y-84247118D01*
X122763938Y-84236062D01*
X122752882Y-84219517D01*
X122749000Y-84200000D01*
X122749000Y-81800000D01*
X122752882Y-81780483D01*
X122763938Y-81763938D01*
X122780483Y-81752882D01*
X122800000Y-81749000D01*
X125200000Y-81749000D01*
X125219517Y-81752882D01*
G37*
G36*
X131553720Y-81753700D02*
G01*
X131603273Y-81753700D01*
X131657891Y-81762814D01*
X131717234Y-81768006D01*
X131763834Y-81780492D01*
X131806997Y-81787695D01*
X131864900Y-81807573D01*
X131927867Y-81824445D01*
X131966438Y-81842430D01*
X132002349Y-81854759D01*
X132061347Y-81886687D01*
X132125500Y-81916602D01*
X132155701Y-81937749D01*
X132183995Y-81953061D01*
X132241590Y-81997889D01*
X132304127Y-82041678D01*
X132326167Y-82063718D01*
X132346987Y-82079923D01*
X132400470Y-82138021D01*
X132458322Y-82195873D01*
X132472924Y-82216727D01*
X132486878Y-82231885D01*
X132533430Y-82303139D01*
X132583398Y-82374500D01*
X132591738Y-82392385D01*
X132599843Y-82404791D01*
X132636635Y-82488668D01*
X132675555Y-82572133D01*
X132679179Y-82585658D01*
X132682813Y-82593943D01*
X132707144Y-82690025D01*
X132731994Y-82782766D01*
X132732714Y-82791000D01*
X132733515Y-82794162D01*
X132742892Y-82907335D01*
X132751000Y-83000000D01*
X132742892Y-83092672D01*
X132733515Y-83205837D01*
X132732714Y-83208997D01*
X132731994Y-83217234D01*
X132707139Y-83309991D01*
X132682813Y-83406056D01*
X132679179Y-83414338D01*
X132675555Y-83427867D01*
X132636627Y-83511347D01*
X132599843Y-83595208D01*
X132591739Y-83607611D01*
X132583398Y-83625500D01*
X132533421Y-83696874D01*
X132486878Y-83768114D01*
X132472927Y-83783268D01*
X132458322Y-83804127D01*
X132400458Y-83861990D01*
X132346987Y-83920076D01*
X132326172Y-83936276D01*
X132304127Y-83958322D01*
X132241577Y-84002119D01*
X132183995Y-84046938D01*
X132155707Y-84062246D01*
X132125500Y-84083398D01*
X132061334Y-84113318D01*
X132002349Y-84145240D01*
X131966446Y-84157565D01*
X131927867Y-84175555D01*
X131864887Y-84192430D01*
X131806997Y-84212304D01*
X131763842Y-84219505D01*
X131717234Y-84231994D01*
X131657888Y-84237186D01*
X131603273Y-84246300D01*
X131553720Y-84246300D01*
X131500000Y-84251000D01*
X131446280Y-84246300D01*
X131396727Y-84246300D01*
X131342111Y-84237186D01*
X131282766Y-84231994D01*
X131236159Y-84219505D01*
X131193002Y-84212304D01*
X131135108Y-84192429D01*
X131072133Y-84175555D01*
X131033556Y-84157566D01*
X130997650Y-84145240D01*
X130938658Y-84113315D01*
X130874500Y-84083398D01*
X130844295Y-84062248D01*
X130816004Y-84046938D01*
X130758412Y-84002112D01*
X130695873Y-83958322D01*
X130673831Y-83936280D01*
X130653012Y-83920076D01*
X130599528Y-83861977D01*
X130541678Y-83804127D01*
X130527075Y-83783273D01*
X130513121Y-83768114D01*
X130466563Y-83696852D01*
X130416602Y-83625500D01*
X130408262Y-83607616D01*
X130400156Y-83595208D01*
X130363355Y-83511311D01*
X130324445Y-83427867D01*
X130320821Y-83414344D01*
X130317186Y-83406056D01*
X130292842Y-83309923D01*
X130268006Y-83217234D01*
X130267285Y-83209003D01*
X130266484Y-83205837D01*
X130257089Y-83092456D01*
X130249000Y-83000000D01*
X130257088Y-82907551D01*
X130266484Y-82794162D01*
X130267286Y-82790994D01*
X130268006Y-82782766D01*
X130292837Y-82690093D01*
X130317186Y-82593943D01*
X130320822Y-82585653D01*
X130324445Y-82572133D01*
X130363348Y-82488704D01*
X130400156Y-82404791D01*
X130408264Y-82392380D01*
X130416602Y-82374500D01*
X130466554Y-82303160D01*
X130513121Y-82231885D01*
X130527078Y-82216722D01*
X130541678Y-82195873D01*
X130599517Y-82138033D01*
X130653012Y-82079923D01*
X130673835Y-82063715D01*
X130695873Y-82041678D01*
X130758399Y-81997896D01*
X130816004Y-81953061D01*
X130844301Y-81937746D01*
X130874500Y-81916602D01*
X130938644Y-81886690D01*
X130997650Y-81854759D01*
X131033564Y-81842429D01*
X131072133Y-81824445D01*
X131135095Y-81807574D01*
X131193002Y-81787695D01*
X131236166Y-81780492D01*
X131282766Y-81768006D01*
X131342107Y-81762814D01*
X131396727Y-81753700D01*
X131446280Y-81753700D01*
X131500000Y-81749000D01*
X131553720Y-81753700D01*
G37*
G36*
X157013199Y-79671662D02*
G01*
X157060954Y-79671662D01*
X157102194Y-79680427D01*
X157137901Y-79683945D01*
X157182759Y-79697552D01*
X157234973Y-79708651D01*
X157268384Y-79723526D01*
X157297435Y-79732339D01*
X157343602Y-79757015D01*
X157397500Y-79781012D01*
X157422554Y-79799215D01*
X157444453Y-79810920D01*
X157489128Y-79847584D01*
X157541430Y-79885584D01*
X157558411Y-79904443D01*
X157573320Y-79916679D01*
X157613387Y-79965501D01*
X157660473Y-80017795D01*
X157670364Y-80034927D01*
X157679079Y-80045546D01*
X157711306Y-80105840D01*
X157749427Y-80171867D01*
X157753813Y-80185368D01*
X157757660Y-80192564D01*
X157778861Y-80262455D01*
X157804404Y-80341067D01*
X157805303Y-80349623D01*
X157806054Y-80352098D01*
X157813371Y-80426389D01*
X157823000Y-80518000D01*
X157813370Y-80609619D01*
X157806054Y-80683901D01*
X157805303Y-80686375D01*
X157804404Y-80694933D01*
X157778856Y-80773558D01*
X157757660Y-80843435D01*
X157753814Y-80850629D01*
X157749427Y-80864133D01*
X157711299Y-80930172D01*
X157679079Y-80990453D01*
X157670366Y-81001069D01*
X157660473Y-81018205D01*
X157613378Y-81070509D01*
X157573320Y-81119320D01*
X157558414Y-81131552D01*
X157541430Y-81150416D01*
X157489118Y-81188423D01*
X157444453Y-81225079D01*
X157422559Y-81236780D01*
X157397500Y-81254988D01*
X157343591Y-81278989D01*
X157297435Y-81303660D01*
X157268391Y-81312470D01*
X157234973Y-81327349D01*
X157182748Y-81338449D01*
X157137901Y-81352054D01*
X157102203Y-81355570D01*
X157060954Y-81364338D01*
X157013188Y-81364338D01*
X156972000Y-81368395D01*
X156930811Y-81364338D01*
X156883046Y-81364338D01*
X156841797Y-81355570D01*
X156806098Y-81352054D01*
X156761248Y-81338448D01*
X156709027Y-81327349D01*
X156675610Y-81312471D01*
X156646564Y-81303660D01*
X156600402Y-81278986D01*
X156546500Y-81254988D01*
X156521443Y-81236783D01*
X156499546Y-81225079D01*
X156454873Y-81188416D01*
X156402570Y-81150416D01*
X156385588Y-81131555D01*
X156370679Y-81119320D01*
X156330610Y-81070496D01*
X156283527Y-81018205D01*
X156273636Y-81001073D01*
X156264920Y-80990453D01*
X156232687Y-80930148D01*
X156194573Y-80864133D01*
X156190186Y-80850634D01*
X156186339Y-80843435D01*
X156165128Y-80773512D01*
X156139596Y-80694933D01*
X156138697Y-80686380D01*
X156137945Y-80683901D01*
X156130613Y-80609467D01*
X156121000Y-80518000D01*
X156130612Y-80426540D01*
X156137945Y-80352098D01*
X156138697Y-80349618D01*
X156139596Y-80341067D01*
X156165123Y-80262502D01*
X156186339Y-80192564D01*
X156190187Y-80185363D01*
X156194573Y-80171867D01*
X156232680Y-80105863D01*
X156264920Y-80045546D01*
X156273638Y-80034923D01*
X156283527Y-80017795D01*
X156330601Y-79965513D01*
X156370679Y-79916679D01*
X156385591Y-79904440D01*
X156402570Y-79885584D01*
X156454862Y-79847591D01*
X156499546Y-79810920D01*
X156521448Y-79799213D01*
X156546500Y-79781012D01*
X156600391Y-79757018D01*
X156646564Y-79732339D01*
X156675617Y-79723525D01*
X156709027Y-79708651D01*
X156761237Y-79697553D01*
X156806098Y-79683945D01*
X156841806Y-79680427D01*
X156883046Y-79671662D01*
X156930801Y-79671662D01*
X156972000Y-79667604D01*
X157013199Y-79671662D01*
G37*
G36*
X114489517Y-77762882D02*
G01*
X114506062Y-77773938D01*
X114517118Y-77790483D01*
X114521000Y-77810000D01*
X114521000Y-80610000D01*
X114517118Y-80629517D01*
X114506062Y-80646062D01*
X114489517Y-80657118D01*
X114470000Y-80661000D01*
X111670000Y-80661000D01*
X111650483Y-80657118D01*
X111633938Y-80646062D01*
X111622882Y-80629517D01*
X111619000Y-80610000D01*
X111619000Y-77810000D01*
X111622882Y-77790483D01*
X111633938Y-77773938D01*
X111650483Y-77762882D01*
X111670000Y-77759000D01*
X114470000Y-77759000D01*
X114489517Y-77762882D01*
G37*
G36*
X97888066Y-77763956D02*
G01*
X97949823Y-77763956D01*
X98004950Y-77773155D01*
X98056929Y-77777246D01*
X98119525Y-77792274D01*
X98186199Y-77803400D01*
X98233488Y-77819634D01*
X98278263Y-77830384D01*
X98343437Y-77857380D01*
X98412860Y-77881213D01*
X98451636Y-77902197D01*
X98488565Y-77917494D01*
X98554016Y-77957602D01*
X98623622Y-77995271D01*
X98653740Y-78018713D01*
X98682650Y-78036429D01*
X98745833Y-78090392D01*
X98812736Y-78142465D01*
X98834557Y-78166169D01*
X98855739Y-78184260D01*
X98913899Y-78252357D01*
X98975043Y-78318777D01*
X98989416Y-78340776D01*
X99003570Y-78357349D01*
X99053867Y-78439427D01*
X99106116Y-78519400D01*
X99114280Y-78538012D01*
X99122505Y-78551434D01*
X99162139Y-78647120D01*
X99202381Y-78738861D01*
X99205906Y-78752782D01*
X99209615Y-78761736D01*
X99235924Y-78871323D01*
X99261210Y-78971173D01*
X99261902Y-78979526D01*
X99262753Y-78983070D01*
X99273292Y-79116985D01*
X99281000Y-79210000D01*
X99273291Y-79303022D01*
X99262753Y-79436929D01*
X99261902Y-79440472D01*
X99261210Y-79448827D01*
X99235920Y-79548695D01*
X99209615Y-79658263D01*
X99205907Y-79667214D01*
X99202381Y-79681139D01*
X99162132Y-79772896D01*
X99122505Y-79868565D01*
X99114281Y-79881984D01*
X99106116Y-79900600D01*
X99053857Y-79980587D01*
X99003570Y-80062650D01*
X98989419Y-80079218D01*
X98975043Y-80101223D01*
X98913887Y-80167655D01*
X98855739Y-80235739D01*
X98834561Y-80253825D01*
X98812736Y-80277535D01*
X98745820Y-80329617D01*
X98682650Y-80383570D01*
X98653746Y-80401281D01*
X98623622Y-80424729D01*
X98554003Y-80462404D01*
X98488565Y-80502505D01*
X98451644Y-80517797D01*
X98412860Y-80538787D01*
X98343423Y-80562624D01*
X98278263Y-80589615D01*
X98233497Y-80600362D01*
X98186199Y-80616600D01*
X98119511Y-80627728D01*
X98056929Y-80642753D01*
X98004962Y-80646842D01*
X97949823Y-80656044D01*
X97888054Y-80656044D01*
X97830000Y-80660613D01*
X97771946Y-80656044D01*
X97710177Y-80656044D01*
X97655038Y-80646843D01*
X97603070Y-80642753D01*
X97540484Y-80627727D01*
X97473801Y-80616600D01*
X97426504Y-80600363D01*
X97381736Y-80589615D01*
X97316570Y-80562622D01*
X97247140Y-80538787D01*
X97208358Y-80517799D01*
X97171434Y-80502505D01*
X97105988Y-80462400D01*
X97036378Y-80424729D01*
X97006257Y-80401284D01*
X96977349Y-80383570D01*
X96914168Y-80329608D01*
X96847264Y-80277535D01*
X96825441Y-80253829D01*
X96804260Y-80235739D01*
X96746098Y-80167640D01*
X96684957Y-80101223D01*
X96670584Y-80079223D01*
X96656429Y-80062650D01*
X96606126Y-79980562D01*
X96553884Y-79900600D01*
X96545720Y-79881990D01*
X96537494Y-79868565D01*
X96497850Y-79772856D01*
X96457619Y-79681139D01*
X96454094Y-79667220D01*
X96450384Y-79658263D01*
X96424060Y-79548619D01*
X96398790Y-79448827D01*
X96398098Y-79440478D01*
X96397246Y-79436929D01*
X96386688Y-79302781D01*
X96379000Y-79210000D01*
X96386687Y-79117225D01*
X96397246Y-78983070D01*
X96398098Y-78979519D01*
X96398790Y-78971173D01*
X96424056Y-78871399D01*
X96450384Y-78761736D01*
X96454095Y-78752776D01*
X96457619Y-78738861D01*
X96497842Y-78647160D01*
X96537494Y-78551434D01*
X96545722Y-78538006D01*
X96553884Y-78519400D01*
X96606116Y-78439452D01*
X96656429Y-78357349D01*
X96670587Y-78340771D01*
X96684957Y-78318777D01*
X96746087Y-78252372D01*
X96804260Y-78184260D01*
X96825446Y-78166165D01*
X96847264Y-78142465D01*
X96914155Y-78090401D01*
X96977349Y-78036429D01*
X97006263Y-78018710D01*
X97036378Y-77995271D01*
X97105974Y-77957607D01*
X97171434Y-77917494D01*
X97208366Y-77902196D01*
X97247140Y-77881213D01*
X97316556Y-77857382D01*
X97381736Y-77830384D01*
X97426514Y-77819633D01*
X97473801Y-77803400D01*
X97540471Y-77792274D01*
X97603070Y-77777246D01*
X97655049Y-77773155D01*
X97710177Y-77763956D01*
X97771933Y-77763956D01*
X97830000Y-77759386D01*
X97888066Y-77763956D01*
G37*
G36*
X102968066Y-77763956D02*
G01*
X103029823Y-77763956D01*
X103084950Y-77773155D01*
X103136929Y-77777246D01*
X103199525Y-77792274D01*
X103266199Y-77803400D01*
X103313488Y-77819634D01*
X103358263Y-77830384D01*
X103423437Y-77857380D01*
X103492860Y-77881213D01*
X103531636Y-77902197D01*
X103568565Y-77917494D01*
X103634016Y-77957602D01*
X103703622Y-77995271D01*
X103733740Y-78018713D01*
X103762650Y-78036429D01*
X103825833Y-78090392D01*
X103892736Y-78142465D01*
X103914557Y-78166169D01*
X103935739Y-78184260D01*
X103993899Y-78252357D01*
X104055043Y-78318777D01*
X104069416Y-78340776D01*
X104083570Y-78357349D01*
X104133867Y-78439427D01*
X104186116Y-78519400D01*
X104194280Y-78538012D01*
X104202505Y-78551434D01*
X104242139Y-78647120D01*
X104282381Y-78738861D01*
X104285906Y-78752782D01*
X104289615Y-78761736D01*
X104315924Y-78871323D01*
X104341210Y-78971173D01*
X104341902Y-78979526D01*
X104342753Y-78983070D01*
X104353292Y-79116985D01*
X104361000Y-79210000D01*
X104353291Y-79303022D01*
X104342753Y-79436929D01*
X104341902Y-79440472D01*
X104341210Y-79448827D01*
X104315920Y-79548695D01*
X104289615Y-79658263D01*
X104285907Y-79667214D01*
X104282381Y-79681139D01*
X104242132Y-79772896D01*
X104202505Y-79868565D01*
X104194281Y-79881984D01*
X104186116Y-79900600D01*
X104133857Y-79980587D01*
X104083570Y-80062650D01*
X104069419Y-80079218D01*
X104055043Y-80101223D01*
X103993887Y-80167655D01*
X103935739Y-80235739D01*
X103914561Y-80253825D01*
X103892736Y-80277535D01*
X103825820Y-80329617D01*
X103762650Y-80383570D01*
X103733746Y-80401281D01*
X103703622Y-80424729D01*
X103634003Y-80462404D01*
X103568565Y-80502505D01*
X103531644Y-80517797D01*
X103492860Y-80538787D01*
X103423423Y-80562624D01*
X103358263Y-80589615D01*
X103313497Y-80600362D01*
X103266199Y-80616600D01*
X103199511Y-80627728D01*
X103136929Y-80642753D01*
X103084962Y-80646842D01*
X103029823Y-80656044D01*
X102968054Y-80656044D01*
X102910000Y-80660613D01*
X102851946Y-80656044D01*
X102790177Y-80656044D01*
X102735038Y-80646843D01*
X102683070Y-80642753D01*
X102620484Y-80627727D01*
X102553801Y-80616600D01*
X102506504Y-80600363D01*
X102461736Y-80589615D01*
X102396570Y-80562622D01*
X102327140Y-80538787D01*
X102288358Y-80517799D01*
X102251434Y-80502505D01*
X102185988Y-80462400D01*
X102116378Y-80424729D01*
X102086257Y-80401284D01*
X102057349Y-80383570D01*
X101994168Y-80329608D01*
X101927264Y-80277535D01*
X101905441Y-80253829D01*
X101884260Y-80235739D01*
X101826098Y-80167640D01*
X101764957Y-80101223D01*
X101750584Y-80079223D01*
X101736429Y-80062650D01*
X101686126Y-79980562D01*
X101633884Y-79900600D01*
X101625720Y-79881990D01*
X101617494Y-79868565D01*
X101577850Y-79772856D01*
X101537619Y-79681139D01*
X101534094Y-79667220D01*
X101530384Y-79658263D01*
X101504060Y-79548619D01*
X101478790Y-79448827D01*
X101478098Y-79440478D01*
X101477246Y-79436929D01*
X101466688Y-79302781D01*
X101459000Y-79210000D01*
X101466687Y-79117225D01*
X101477246Y-78983070D01*
X101478098Y-78979519D01*
X101478790Y-78971173D01*
X101504056Y-78871399D01*
X101530384Y-78761736D01*
X101534095Y-78752776D01*
X101537619Y-78738861D01*
X101577842Y-78647160D01*
X101617494Y-78551434D01*
X101625722Y-78538006D01*
X101633884Y-78519400D01*
X101686116Y-78439452D01*
X101736429Y-78357349D01*
X101750587Y-78340771D01*
X101764957Y-78318777D01*
X101826087Y-78252372D01*
X101884260Y-78184260D01*
X101905446Y-78166165D01*
X101927264Y-78142465D01*
X101994155Y-78090401D01*
X102057349Y-78036429D01*
X102086263Y-78018710D01*
X102116378Y-77995271D01*
X102185974Y-77957607D01*
X102251434Y-77917494D01*
X102288366Y-77902196D01*
X102327140Y-77881213D01*
X102396556Y-77857382D01*
X102461736Y-77830384D01*
X102506514Y-77819633D01*
X102553801Y-77803400D01*
X102620471Y-77792274D01*
X102683070Y-77777246D01*
X102735049Y-77773155D01*
X102790177Y-77763956D01*
X102851933Y-77763956D01*
X102910000Y-77759386D01*
X102968066Y-77763956D01*
G37*
G36*
X108048066Y-77763956D02*
G01*
X108109823Y-77763956D01*
X108164950Y-77773155D01*
X108216929Y-77777246D01*
X108279525Y-77792274D01*
X108346199Y-77803400D01*
X108393488Y-77819634D01*
X108438263Y-77830384D01*
X108503437Y-77857380D01*
X108572860Y-77881213D01*
X108611636Y-77902197D01*
X108648565Y-77917494D01*
X108714016Y-77957602D01*
X108783622Y-77995271D01*
X108813740Y-78018713D01*
X108842650Y-78036429D01*
X108905833Y-78090392D01*
X108972736Y-78142465D01*
X108994557Y-78166169D01*
X109015739Y-78184260D01*
X109073899Y-78252357D01*
X109135043Y-78318777D01*
X109149416Y-78340776D01*
X109163570Y-78357349D01*
X109213867Y-78439427D01*
X109266116Y-78519400D01*
X109274280Y-78538012D01*
X109282505Y-78551434D01*
X109322139Y-78647120D01*
X109362381Y-78738861D01*
X109365906Y-78752782D01*
X109369615Y-78761736D01*
X109395924Y-78871323D01*
X109421210Y-78971173D01*
X109421902Y-78979526D01*
X109422753Y-78983070D01*
X109433292Y-79116985D01*
X109441000Y-79210000D01*
X109433291Y-79303022D01*
X109422753Y-79436929D01*
X109421902Y-79440472D01*
X109421210Y-79448827D01*
X109395920Y-79548695D01*
X109369615Y-79658263D01*
X109365907Y-79667214D01*
X109362381Y-79681139D01*
X109322132Y-79772896D01*
X109282505Y-79868565D01*
X109274281Y-79881984D01*
X109266116Y-79900600D01*
X109213857Y-79980587D01*
X109163570Y-80062650D01*
X109149419Y-80079218D01*
X109135043Y-80101223D01*
X109073887Y-80167655D01*
X109015739Y-80235739D01*
X108994561Y-80253825D01*
X108972736Y-80277535D01*
X108905820Y-80329617D01*
X108842650Y-80383570D01*
X108813746Y-80401281D01*
X108783622Y-80424729D01*
X108714003Y-80462404D01*
X108648565Y-80502505D01*
X108611644Y-80517797D01*
X108572860Y-80538787D01*
X108503423Y-80562624D01*
X108438263Y-80589615D01*
X108393497Y-80600362D01*
X108346199Y-80616600D01*
X108279511Y-80627728D01*
X108216929Y-80642753D01*
X108164962Y-80646842D01*
X108109823Y-80656044D01*
X108048054Y-80656044D01*
X107990000Y-80660613D01*
X107931946Y-80656044D01*
X107870177Y-80656044D01*
X107815038Y-80646843D01*
X107763070Y-80642753D01*
X107700484Y-80627727D01*
X107633801Y-80616600D01*
X107586504Y-80600363D01*
X107541736Y-80589615D01*
X107476570Y-80562622D01*
X107407140Y-80538787D01*
X107368358Y-80517799D01*
X107331434Y-80502505D01*
X107265988Y-80462400D01*
X107196378Y-80424729D01*
X107166257Y-80401284D01*
X107137349Y-80383570D01*
X107074168Y-80329608D01*
X107007264Y-80277535D01*
X106985441Y-80253829D01*
X106964260Y-80235739D01*
X106906098Y-80167640D01*
X106844957Y-80101223D01*
X106830584Y-80079223D01*
X106816429Y-80062650D01*
X106766126Y-79980562D01*
X106713884Y-79900600D01*
X106705720Y-79881990D01*
X106697494Y-79868565D01*
X106657850Y-79772856D01*
X106617619Y-79681139D01*
X106614094Y-79667220D01*
X106610384Y-79658263D01*
X106584060Y-79548619D01*
X106558790Y-79448827D01*
X106558098Y-79440478D01*
X106557246Y-79436929D01*
X106546688Y-79302781D01*
X106539000Y-79210000D01*
X106546687Y-79117225D01*
X106557246Y-78983070D01*
X106558098Y-78979519D01*
X106558790Y-78971173D01*
X106584056Y-78871399D01*
X106610384Y-78761736D01*
X106614095Y-78752776D01*
X106617619Y-78738861D01*
X106657842Y-78647160D01*
X106697494Y-78551434D01*
X106705722Y-78538006D01*
X106713884Y-78519400D01*
X106766116Y-78439452D01*
X106816429Y-78357349D01*
X106830587Y-78340771D01*
X106844957Y-78318777D01*
X106906087Y-78252372D01*
X106964260Y-78184260D01*
X106985446Y-78166165D01*
X107007264Y-78142465D01*
X107074155Y-78090401D01*
X107137349Y-78036429D01*
X107166263Y-78018710D01*
X107196378Y-77995271D01*
X107265974Y-77957607D01*
X107331434Y-77917494D01*
X107368366Y-77902196D01*
X107407140Y-77881213D01*
X107476556Y-77857382D01*
X107541736Y-77830384D01*
X107586514Y-77819633D01*
X107633801Y-77803400D01*
X107700471Y-77792274D01*
X107763070Y-77777246D01*
X107815049Y-77773155D01*
X107870177Y-77763956D01*
X107931933Y-77763956D01*
X107990000Y-77759386D01*
X108048066Y-77763956D01*
G37*
G36*
X146103720Y-77867700D02*
G01*
X146153273Y-77867700D01*
X146207891Y-77876814D01*
X146267234Y-77882006D01*
X146313834Y-77894492D01*
X146356997Y-77901695D01*
X146414900Y-77921573D01*
X146477867Y-77938445D01*
X146516438Y-77956430D01*
X146552349Y-77968759D01*
X146611347Y-78000687D01*
X146675500Y-78030602D01*
X146705701Y-78051749D01*
X146733995Y-78067061D01*
X146791590Y-78111889D01*
X146854127Y-78155678D01*
X146876167Y-78177718D01*
X146896987Y-78193923D01*
X146950470Y-78252021D01*
X147008322Y-78309873D01*
X147022924Y-78330727D01*
X147036878Y-78345885D01*
X147083430Y-78417139D01*
X147133398Y-78488500D01*
X147141738Y-78506385D01*
X147149843Y-78518791D01*
X147186635Y-78602668D01*
X147225555Y-78686133D01*
X147229179Y-78699658D01*
X147232813Y-78707943D01*
X147257144Y-78804025D01*
X147281994Y-78896766D01*
X147282714Y-78905000D01*
X147283515Y-78908162D01*
X147292892Y-79021335D01*
X147301000Y-79114000D01*
X147292892Y-79206672D01*
X147283515Y-79319837D01*
X147282714Y-79322997D01*
X147281994Y-79331234D01*
X147257139Y-79423991D01*
X147232813Y-79520056D01*
X147229179Y-79528338D01*
X147225555Y-79541867D01*
X147186627Y-79625347D01*
X147149843Y-79709208D01*
X147141739Y-79721611D01*
X147133398Y-79739500D01*
X147083421Y-79810874D01*
X147036878Y-79882114D01*
X147022927Y-79897268D01*
X147008322Y-79918127D01*
X146950458Y-79975990D01*
X146896987Y-80034076D01*
X146876172Y-80050276D01*
X146854127Y-80072322D01*
X146791577Y-80116119D01*
X146733995Y-80160938D01*
X146705707Y-80176246D01*
X146675500Y-80197398D01*
X146611334Y-80227318D01*
X146552349Y-80259240D01*
X146516446Y-80271565D01*
X146477867Y-80289555D01*
X146414887Y-80306430D01*
X146356997Y-80326304D01*
X146313842Y-80333505D01*
X146267234Y-80345994D01*
X146207888Y-80351186D01*
X146153273Y-80360300D01*
X146103720Y-80360300D01*
X146050000Y-80365000D01*
X145996280Y-80360300D01*
X145946727Y-80360300D01*
X145892111Y-80351186D01*
X145832766Y-80345994D01*
X145786159Y-80333505D01*
X145743002Y-80326304D01*
X145685108Y-80306429D01*
X145622133Y-80289555D01*
X145583556Y-80271566D01*
X145547650Y-80259240D01*
X145488658Y-80227315D01*
X145424500Y-80197398D01*
X145394295Y-80176248D01*
X145366004Y-80160938D01*
X145308412Y-80116112D01*
X145245873Y-80072322D01*
X145223831Y-80050280D01*
X145203012Y-80034076D01*
X145149528Y-79975977D01*
X145091678Y-79918127D01*
X145077075Y-79897273D01*
X145063121Y-79882114D01*
X145016563Y-79810852D01*
X144966602Y-79739500D01*
X144958262Y-79721616D01*
X144950156Y-79709208D01*
X144913355Y-79625311D01*
X144874445Y-79541867D01*
X144870821Y-79528344D01*
X144867186Y-79520056D01*
X144842842Y-79423923D01*
X144818006Y-79331234D01*
X144817285Y-79323003D01*
X144816484Y-79319837D01*
X144807089Y-79206456D01*
X144799000Y-79114000D01*
X144807088Y-79021551D01*
X144816484Y-78908162D01*
X144817286Y-78904994D01*
X144818006Y-78896766D01*
X144842837Y-78804093D01*
X144867186Y-78707943D01*
X144870822Y-78699653D01*
X144874445Y-78686133D01*
X144913348Y-78602704D01*
X144950156Y-78518791D01*
X144958264Y-78506380D01*
X144966602Y-78488500D01*
X145016554Y-78417160D01*
X145063121Y-78345885D01*
X145077078Y-78330722D01*
X145091678Y-78309873D01*
X145149517Y-78252033D01*
X145203012Y-78193923D01*
X145223835Y-78177715D01*
X145245873Y-78155678D01*
X145308399Y-78111896D01*
X145366004Y-78067061D01*
X145394301Y-78051746D01*
X145424500Y-78030602D01*
X145488644Y-78000690D01*
X145547650Y-77968759D01*
X145583564Y-77956429D01*
X145622133Y-77938445D01*
X145685095Y-77921574D01*
X145743002Y-77901695D01*
X145786166Y-77894492D01*
X145832766Y-77882006D01*
X145892107Y-77876814D01*
X145946727Y-77867700D01*
X145996280Y-77867700D01*
X146050000Y-77863000D01*
X146103720Y-77867700D01*
G37*
G36*
X157018604Y-77318590D02*
G01*
X157059696Y-77318590D01*
X157105456Y-77327144D01*
X157157531Y-77332273D01*
X157197091Y-77344273D01*
X157232111Y-77350820D01*
X157280617Y-77369611D01*
X157335932Y-77386391D01*
X157367534Y-77403282D01*
X157395656Y-77414177D01*
X157444513Y-77444428D01*
X157500347Y-77474272D01*
X157523809Y-77493526D01*
X157544784Y-77506514D01*
X157591256Y-77548879D01*
X157644459Y-77592541D01*
X157660224Y-77611751D01*
X157674400Y-77624674D01*
X157715557Y-77679174D01*
X157762728Y-77736653D01*
X157771848Y-77753717D01*
X157780099Y-77764642D01*
X157812925Y-77830566D01*
X157850609Y-77901068D01*
X157854628Y-77914316D01*
X157858282Y-77921655D01*
X157879864Y-77997507D01*
X157904727Y-78079469D01*
X157905543Y-78087762D01*
X157906280Y-78090350D01*
X157913937Y-78172982D01*
X157923000Y-78265000D01*
X157913936Y-78357026D01*
X157906280Y-78439649D01*
X157905544Y-78442235D01*
X157904727Y-78450531D01*
X157879859Y-78532507D01*
X157858282Y-78608344D01*
X157854628Y-78615680D01*
X157850609Y-78628932D01*
X157812917Y-78699447D01*
X157780099Y-78765357D01*
X157771850Y-78776279D01*
X157762728Y-78793347D01*
X157715547Y-78850836D01*
X157674400Y-78905325D01*
X157660227Y-78918244D01*
X157644459Y-78937459D01*
X157591245Y-78981129D01*
X157544784Y-79023485D01*
X157523814Y-79036469D01*
X157500347Y-79055728D01*
X157444502Y-79085577D01*
X157395656Y-79115822D01*
X157367541Y-79126713D01*
X157335932Y-79143609D01*
X157280605Y-79160392D01*
X157232111Y-79179179D01*
X157197098Y-79185724D01*
X157157531Y-79197727D01*
X157105453Y-79202856D01*
X157059696Y-79211410D01*
X157018604Y-79211410D01*
X156972000Y-79216000D01*
X156925396Y-79211410D01*
X156884304Y-79211410D01*
X156838545Y-79202856D01*
X156786469Y-79197727D01*
X156746902Y-79185724D01*
X156711888Y-79179179D01*
X156663389Y-79160390D01*
X156608068Y-79143609D01*
X156576461Y-79126714D01*
X156548343Y-79115822D01*
X156499490Y-79085573D01*
X156443653Y-79055728D01*
X156420188Y-79036471D01*
X156399215Y-79023485D01*
X156352744Y-78981121D01*
X156299541Y-78937459D01*
X156283775Y-78918248D01*
X156269599Y-78905325D01*
X156228439Y-78850821D01*
X156181272Y-78793347D01*
X156172151Y-78776284D01*
X156163900Y-78765357D01*
X156131067Y-78699420D01*
X156093391Y-78628932D01*
X156089372Y-78615685D01*
X156085717Y-78608344D01*
X156064124Y-78532454D01*
X156039273Y-78450531D01*
X156038456Y-78442241D01*
X156037719Y-78439649D01*
X156030046Y-78356854D01*
X156021000Y-78265000D01*
X156030045Y-78173153D01*
X156037719Y-78090350D01*
X156038456Y-78087757D01*
X156039273Y-78079469D01*
X156064119Y-77997560D01*
X156085717Y-77921655D01*
X156089373Y-77914311D01*
X156093391Y-77901068D01*
X156131060Y-77830593D01*
X156163900Y-77764642D01*
X156172153Y-77753712D01*
X156181272Y-77736653D01*
X156228430Y-77679190D01*
X156269599Y-77624674D01*
X156283778Y-77611747D01*
X156299541Y-77592541D01*
X156352733Y-77548887D01*
X156399215Y-77506514D01*
X156420193Y-77493524D01*
X156443653Y-77474272D01*
X156499478Y-77444432D01*
X156548343Y-77414177D01*
X156576467Y-77403281D01*
X156608068Y-77386391D01*
X156663377Y-77369612D01*
X156711888Y-77350820D01*
X156746909Y-77344273D01*
X156786469Y-77332273D01*
X156838542Y-77327144D01*
X156884304Y-77318590D01*
X156925396Y-77318590D01*
X156972000Y-77314000D01*
X157018604Y-77318590D01*
G37*
G36*
X157891517Y-74777882D02*
G01*
X157908062Y-74788938D01*
X157919118Y-74805483D01*
X157923000Y-74825000D01*
X157923000Y-76625000D01*
X157919118Y-76644517D01*
X157908062Y-76661062D01*
X157891517Y-76672118D01*
X157872000Y-76676000D01*
X156072000Y-76676000D01*
X156052483Y-76672118D01*
X156035938Y-76661062D01*
X156024882Y-76644517D01*
X156021000Y-76625000D01*
X156021000Y-74825000D01*
X156024882Y-74805483D01*
X156035938Y-74788938D01*
X156052483Y-74777882D01*
X156072000Y-74774000D01*
X157872000Y-74774000D01*
X157891517Y-74777882D01*
G37*
G36*
X105781913Y-60506995D02*
G01*
X105797725Y-60513976D01*
X105805530Y-60515213D01*
X105838038Y-60531776D01*
X105883105Y-60551676D01*
X105961324Y-60629895D01*
X105981226Y-60674968D01*
X105997786Y-60707469D01*
X105999021Y-60715271D01*
X106006005Y-60731087D01*
X106014000Y-60800002D01*
X106014000Y-64199998D01*
X106006005Y-64268913D01*
X105999021Y-64284729D01*
X105997786Y-64292530D01*
X105981229Y-64325023D01*
X105961324Y-64370105D01*
X105883105Y-64448324D01*
X105838023Y-64468229D01*
X105805530Y-64484786D01*
X105797728Y-64486021D01*
X105781913Y-64493005D01*
X105712998Y-64501000D01*
X102313002Y-64501000D01*
X102244087Y-64493005D01*
X102228271Y-64486021D01*
X102220469Y-64484786D01*
X102187968Y-64468226D01*
X102142895Y-64448324D01*
X102064676Y-64370105D01*
X102044776Y-64325038D01*
X102028213Y-64292530D01*
X102026976Y-64284725D01*
X102019995Y-64268913D01*
X102012000Y-64199998D01*
X102012000Y-60800002D01*
X102019995Y-60731087D01*
X102026976Y-60715275D01*
X102028213Y-60707469D01*
X102044780Y-60674954D01*
X102064676Y-60629895D01*
X102142895Y-60551676D01*
X102187954Y-60531780D01*
X102220469Y-60515213D01*
X102228275Y-60513976D01*
X102244087Y-60506995D01*
X102313002Y-60499000D01*
X105712998Y-60499000D01*
X105781913Y-60506995D01*
G37*
G36*
X113782913Y-60506995D02*
G01*
X113798725Y-60513976D01*
X113806530Y-60515213D01*
X113839038Y-60531776D01*
X113884105Y-60551676D01*
X113962324Y-60629895D01*
X113982226Y-60674968D01*
X113998786Y-60707469D01*
X114000021Y-60715271D01*
X114007005Y-60731087D01*
X114015000Y-60800002D01*
X114015000Y-64199998D01*
X114007005Y-64268913D01*
X114000021Y-64284729D01*
X113998786Y-64292530D01*
X113982229Y-64325023D01*
X113962324Y-64370105D01*
X113884105Y-64448324D01*
X113839023Y-64468229D01*
X113806530Y-64484786D01*
X113798728Y-64486021D01*
X113782913Y-64493005D01*
X113713998Y-64501000D01*
X110314002Y-64501000D01*
X110245087Y-64493005D01*
X110229271Y-64486021D01*
X110221469Y-64484786D01*
X110188968Y-64468226D01*
X110143895Y-64448324D01*
X110065676Y-64370105D01*
X110045776Y-64325038D01*
X110029213Y-64292530D01*
X110027976Y-64284725D01*
X110020995Y-64268913D01*
X110013000Y-64199998D01*
X110013000Y-60800002D01*
X110020995Y-60731087D01*
X110027976Y-60715275D01*
X110029213Y-60707469D01*
X110045780Y-60674954D01*
X110065676Y-60629895D01*
X110143895Y-60551676D01*
X110188954Y-60531780D01*
X110221469Y-60515213D01*
X110229275Y-60513976D01*
X110245087Y-60506995D01*
X110314002Y-60499000D01*
X113713998Y-60499000D01*
X113782913Y-60506995D01*
G37*
G36*
X143768913Y-60506995D02*
G01*
X143784725Y-60513976D01*
X143792530Y-60515213D01*
X143825038Y-60531776D01*
X143870105Y-60551676D01*
X143948324Y-60629895D01*
X143968226Y-60674968D01*
X143984786Y-60707469D01*
X143986021Y-60715271D01*
X143993005Y-60731087D01*
X144001000Y-60800002D01*
X144001000Y-64199998D01*
X143993005Y-64268913D01*
X143986021Y-64284729D01*
X143984786Y-64292530D01*
X143968229Y-64325023D01*
X143948324Y-64370105D01*
X143870105Y-64448324D01*
X143825023Y-64468229D01*
X143792530Y-64484786D01*
X143784728Y-64486021D01*
X143768913Y-64493005D01*
X143699998Y-64501000D01*
X140300002Y-64501000D01*
X140231087Y-64493005D01*
X140215271Y-64486021D01*
X140207469Y-64484786D01*
X140174968Y-64468226D01*
X140129895Y-64448324D01*
X140051676Y-64370105D01*
X140031776Y-64325038D01*
X140015213Y-64292530D01*
X140013976Y-64284725D01*
X140006995Y-64268913D01*
X139999000Y-64199998D01*
X139999000Y-60800002D01*
X140006995Y-60731087D01*
X140013976Y-60715275D01*
X140015213Y-60707469D01*
X140031780Y-60674954D01*
X140051676Y-60629895D01*
X140129895Y-60551676D01*
X140174954Y-60531780D01*
X140207469Y-60515213D01*
X140215275Y-60513976D01*
X140231087Y-60506995D01*
X140300002Y-60499000D01*
X143699998Y-60499000D01*
X143768913Y-60506995D01*
G37*
G36*
X151755913Y-60506995D02*
G01*
X151771725Y-60513976D01*
X151779530Y-60515213D01*
X151812038Y-60531776D01*
X151857105Y-60551676D01*
X151935324Y-60629895D01*
X151955226Y-60674968D01*
X151971786Y-60707469D01*
X151973021Y-60715271D01*
X151980005Y-60731087D01*
X151988000Y-60800002D01*
X151988000Y-64199998D01*
X151980005Y-64268913D01*
X151973021Y-64284729D01*
X151971786Y-64292530D01*
X151955229Y-64325023D01*
X151935324Y-64370105D01*
X151857105Y-64448324D01*
X151812023Y-64468229D01*
X151779530Y-64484786D01*
X151771728Y-64486021D01*
X151755913Y-64493005D01*
X151686998Y-64501000D01*
X148287002Y-64501000D01*
X148218087Y-64493005D01*
X148202271Y-64486021D01*
X148194469Y-64484786D01*
X148161968Y-64468226D01*
X148116895Y-64448324D01*
X148038676Y-64370105D01*
X148018776Y-64325038D01*
X148002213Y-64292530D01*
X148000976Y-64284725D01*
X147993995Y-64268913D01*
X147986000Y-64199998D01*
X147986000Y-60800002D01*
X147993995Y-60731087D01*
X148000976Y-60715275D01*
X148002213Y-60707469D01*
X148018780Y-60674954D01*
X148038676Y-60629895D01*
X148116895Y-60551676D01*
X148161954Y-60531780D01*
X148194469Y-60515213D01*
X148202275Y-60513976D01*
X148218087Y-60506995D01*
X148287002Y-60499000D01*
X151686998Y-60499000D01*
X151755913Y-60506995D01*
G37*
G36*
X131575517Y-60928882D02*
G01*
X131592062Y-60939938D01*
X131603118Y-60956483D01*
X131607000Y-60976000D01*
X131607000Y-62976000D01*
X131603118Y-62995517D01*
X131592062Y-63012062D01*
X131575517Y-63023118D01*
X131556000Y-63027000D01*
X129556000Y-63027000D01*
X129536483Y-63023118D01*
X129519938Y-63012062D01*
X129508882Y-62995517D01*
X129505000Y-62976000D01*
X129505000Y-60976000D01*
X129508882Y-60956483D01*
X129519938Y-60939938D01*
X129536483Y-60928882D01*
X129556000Y-60925000D01*
X131556000Y-60925000D01*
X131575517Y-60928882D01*
G37*
G36*
X136655517Y-60928882D02*
G01*
X136672062Y-60939938D01*
X136683118Y-60956483D01*
X136687000Y-60976000D01*
X136687000Y-62976000D01*
X136683118Y-62995517D01*
X136672062Y-63012062D01*
X136655517Y-63023118D01*
X136636000Y-63027000D01*
X134636000Y-63027000D01*
X134616483Y-63023118D01*
X134599938Y-63012062D01*
X134588882Y-62995517D01*
X134585000Y-62976000D01*
X134585000Y-60976000D01*
X134588882Y-60956483D01*
X134599938Y-60939938D01*
X134616483Y-60928882D01*
X134636000Y-60925000D01*
X136636000Y-60925000D01*
X136655517Y-60928882D01*
G37*
M02*
